<?xml version="1.0" encoding="UTF-8" standalone="no"?>
<!-- Created with Inkscape (http://www.inkscape.org/) -->

<svg
   width="144.54886mm"
   height="216.64194mm"
   viewBox="0 0 144.54886 216.64194"
   version="1.1"
   id="svg5"
   xml:space="preserve"
   inkscape:version="1.2.1 (9c6d41e410, 2022-07-14)"
   sodipodi:docname="lama.svg"
   xmlns:inkscape="http://www.inkscape.org/namespaces/inkscape"
   xmlns:sodipodi="http://sodipodi.sourceforge.net/DTD/sodipodi-0.dtd"
   xmlns="http://www.w3.org/2000/svg"
   xmlns:svg="http://www.w3.org/2000/svg"><sodipodi:namedview
     id="namedview7"
     pagecolor="#ffffff"
     bordercolor="#000000"
     borderopacity="0.25"
     inkscape:showpageshadow="2"
     inkscape:pageopacity="0.0"
     inkscape:pagecheckerboard="0"
     inkscape:deskcolor="#d1d1d1"
     inkscape:document-units="mm"
     showgrid="false"
     inkscape:zoom="1"
     inkscape:cx="167.5"
     inkscape:cy="159.5"
     inkscape:window-width="3824"
     inkscape:window-height="2080"
     inkscape:window-x="26"
     inkscape:window-y="23"
     inkscape:window-maximized="0"
     inkscape:current-layer="layer1" /><defs
     id="defs2" /><g
     inkscape:label="Ebene 1"
     inkscape:groupmode="layer"
     id="layer1"
     transform="translate(-27.748694,-44.661726)"><path
       style="fill:#ff7f2a;stroke-width:0.0846667"
       d="m 67.441745,261.21656 c -1.47529,-0.21624 -1.87113,-0.38077 -2.18194,-0.90694 -0.43452,-0.73558 0.0305,-2.03935 1.10944,-3.11052 0.22889,-0.22725 0.45906,-0.49639 0.5115,-0.5981 0.14544,-0.28212 0.11607,-1.52764 -0.0496,-2.10444 -0.0797,-0.27755 -0.13953,-0.6856 -0.13289,-0.90679 0.007,-0.22119 -0.0206,-0.40217 -0.0606,-0.40217 -0.04,0 -0.11043,-0.20002 -0.15654,-0.4445 -0.28517,-1.51213 -0.36595,-2.02474 -0.32545,-2.06525 0.0251,-0.0251 -0.008,-0.22321 -0.074,-0.44015 -0.0658,-0.21694 -0.12012,-0.55805 -0.12063,-0.75803 -2.803363,-13.38817 -3.619791,-25.29794 -5.54832,-37.42485 -0.274266,-2.51539 -0.637879,-5.13987 -0.96537,-7.42355 -0.059,-0.37254 -0.14467,-0.93122 -0.19038,-1.24152 -0.10843,-0.73596 -0.23721,-0.85073 -1.04069,-0.92747 -0.74169,-0.0709 -2.25017,-0.5 -2.92427,-0.83193 -0.32849,-0.16175 -1.1733,-0.64436 -1.43933,-0.82225 -0.16299,-0.10897 -0.43582,-0.29188 -0.60631,-0.40646 -0.893002,-0.71286 -1.321273,-1.71828 -1.82897,-2.6492 -0.16425,-0.23746 -0.32875,-0.81782 -0.61806,-2.18051 -0.12509,-0.58922 -0.16202,-1.11164 -0.16288,-2.30403 -9.9e-4,-1.37156 0.0186,-1.59151 0.17725,-1.98967 0.29814,-0.74821 0.42167,-1.23544 0.36772,-1.4504 -0.13377,-0.53299 -0.87035,-0.92872 -2.62042,-1.40785 -1.76113,-0.48215 -2.83633,-1.41863 -2.83633,-2.47039 0,-0.35045 0.61578,-2.39528 0.77255,-2.56542 0.0408,-0.0442 0.0741,-0.15176 0.0741,-0.23892 0,-0.0872 0.0905,-0.31768 0.20103,-0.51224 1.022496,-2.89618 -1.181651,-3.08154 -3.0336,-3.92224 -1.03143,-0.46625 -1.644431,-1.12071 -1.968099,-2.1012 -0.370797,-1.12326 -0.174644,-2.93895 0.53083,-4.91364 1.024503,-2.86766 1.034112,-3.32056 0.09161,-4.31787 -1.031615,-1.0916 -1.952328,-2.43041 -2.270893,-3.30213 -0.468206,-1.28118 -0.493547,-1.41559 -0.493547,-2.61784 -0.129573,-0.83702 0.233021,-1.50631 0.462552,-2.18776 0.120717,-0.36131 0.323202,-0.82028 0.449967,-1.01994 0.265407,-0.41801 0.865543,-1.02173 1.320906,-1.32879 0.58797,-0.39648 0.729908,-0.52021 0.729908,-0.6363 0,-0.14195 -0.334939,-0.7289 -0.4824,-0.84536 -0.231101,-0.18253 -0.893039,-1.42096 -1.718171,-3.21456 -0.348147,-0.75678 -0.349433,-0.76334 -0.39803,-2.032 l -0.04875,-1.27278 0.326771,-1.05833 c 0.300484,-0.9732 0.359289,-1.09025 0.731011,-1.45501 0.439535,-0.4313 0.495313,-0.60696 0.236685,-0.74538 -0.09216,-0.0493 -0.327804,-0.32688 -0.523661,-0.6168 -0.195858,-0.28993 -0.539558,-0.71564 -0.763778,-0.94602 -0.22422,-0.23039 -0.407815,-0.49709 -0.407989,-0.59267 -1.7e-4,-0.0956 -0.0761,-0.29808 -0.168715,-0.44999 -0.09262,-0.1519 -0.193468,-0.4948 -0.22411,-0.762 -0.03064,-0.26719 -0.104164,-0.62508 -0.163383,-0.79532 -0.139901,-0.40219 -0.06645,-2.25497 0.09687,-2.44338 0.06114,-0.0705 0.212416,-0.45153 0.336176,-0.84667 0.12376,-0.39514 0.293044,-0.79463 0.376185,-0.88776 0.08314,-0.0931 0.178853,-0.26458 0.212694,-0.381 0.07756,-0.26683 0.472259,-0.97604 0.951748,-1.71017 0.356744,-0.54619 0.365418,-0.57482 0.234629,-0.77443 -0.07469,-0.114 -0.276877,-0.30512 -0.449293,-0.42472 -0.339413,-0.23542 -1.020367,-0.98837 -1.395961,-1.54354 -0.128941,-0.19058 -0.381586,-0.80112 -0.561434,-1.35675 -0.306874,-0.94806 -0.323015,-1.04919 -0.262261,-1.64315 0.0877,-0.85737 0.264815,-1.70625 0.388207,-1.86057 0.05585,-0.0699 0.178101,-0.2794 0.271668,-0.46567 0.425495,-0.84705 0.545896,-1.04692 0.741186,-1.23038 0.114828,-0.10788 0.208778,-0.24332 0.208778,-0.30099 0,-0.0577 0.129691,-0.30178 0.288204,-0.54247 0.158512,-0.24068 0.313158,-0.57063 0.343659,-0.73322 0.0305,-0.16258 0.129684,-0.41665 0.220408,-0.5646 0.139714,-0.22785 0.157274,-0.36616 0.114773,-0.90401 -0.0276,-0.34925 -0.105673,-0.81157 -0.173501,-1.02739 -0.06783,-0.21581 -0.158127,-0.57776 -0.200666,-0.80433 -0.04254,-0.22657 -0.193207,-0.92629 -0.334819,-1.55494 -0.141612,-0.62865 -0.330637,-1.50495 -0.420055,-1.94734 -0.08942,-0.44238 -0.20385,-0.91159 -0.254291,-1.04268 -0.05044,-0.13109 -0.09154,-0.62639 -0.09132,-1.10066 3.39e-4,-0.72313 0.03417,-0.94432 0.209657,-1.37032 0.115095,-0.2794 0.210169,-0.60625 0.211274,-0.72632 0.0023,-0.25419 0.367344,-0.83236 0.898277,-1.42288 0.205554,-0.22863 0.373733,-0.49053 0.373733,-0.58201 0,-0.0915 -0.1854,-0.44784 -0.412001,-0.7919 -0.226601,-0.34406 -0.55454,-0.91131 -0.728753,-1.26056 -0.174214,-0.34925 -0.387252,-0.71194 -0.473419,-0.80598 -0.08617,-0.094 -0.292556,-0.51314 -0.458644,-0.93133 -0.391288,-0.98524 -0.445003,-1.10871 -0.682851,-1.5696 -0.307459,-0.59577 -0.477447,-1.92956 -0.409416,-3.21242 0.04208,-0.79345 0.0926,-1.11131 0.201852,-1.27 0.08015,-0.11642 0.194272,-0.36407 0.253604,-0.55033 0.212285,-0.66645 0.453885,-1.025486 1.122032,-1.667436 l 0.678016,-0.65143 -0.03836,-0.4626 c -0.0211,-0.25443 -0.103459,-0.55184 -0.183021,-0.6609 -0.07956,-0.10907 -0.238643,-0.32776 -0.353514,-0.48599 -0.119545,-0.16466 -0.208856,-0.40463 -0.208856,-0.56116 0,-0.15041 -0.06441,-0.421 -0.143132,-0.60131 -0.217373,-0.49788 -0.214316,-3.13729 0.0046,-3.99186 0.106974,-0.417549 0.211579,-0.644796 0.324667,-0.705319 0.09177,-0.04911 0.221432,-0.21005 0.288148,-0.357644 0.06672,-0.147593 0.311665,-0.496951 0.54433,-0.776351 0.89109,-1.070082 0.963663,-1.397057 0.470013,-2.117636 -0.363015,-0.529891 -1.149981,-1.978243 -1.149981,-2.116453 0,-0.05687 -0.07653,-0.200706 -0.170077,-0.319626 -0.09354,-0.118919 -0.191393,-0.343133 -0.217444,-0.498251 -0.02605,-0.155119 -0.125937,-0.5398 -0.221964,-0.854848 -0.329663,-1.081564 -0.06253,-3.032543 0.516499,-3.772196 0.76575,-0.978171 1.583009,-1.701717 2.39951,-2.124366 0.42482,-0.219901 0.572142,-0.41725 0.572142,-0.766426 0,-0.218578 -0.0658,-0.409137 -0.196189,-0.568202 -0.107905,-0.131631 -0.248673,-0.372679 -0.312819,-0.535663 -0.06415,-0.162983 -0.183845,-0.391583 -0.265998,-0.508 -0.08215,-0.116416 -0.23666,-0.535516 -0.343348,-0.931333 -0.158679,-0.588704 -0.192414,-0.919964 -0.18538,-1.820333 0.0047,-0.605367 0.05581,-1.272117 0.113511,-1.481667 0.221096,-0.802941 0.913238,-1.951616 1.426111,-2.366764 1.272463,-1.030006 1.327463,-1.058053 2.573363,-1.312484 0.47443,-0.09689 0.69109,-0.649968 0.30225,-0.771597 -0.10478,-0.03277 -0.3048,-0.152563 -0.4445,-0.2662 -0.25024,-0.203551 -1.55234,-1.050351 -2.250575,-1.463622 -0.430135,-0.282167 -0.912457,-0.55398 -1.322385,-0.797825 -1.013292,-0.578143 -2.186284,-1.159036 -3.073374,-1.699841 -0.414812,-0.219395 -0.788939,-0.498895 -1.172479,-0.704512 -0.924503,-0.532608 -1.916759,-1.09909 -2.809642,-1.617488 -0.921859,-0.761694 -1.96568,-1.283533 -2.779458,-2.041596 -0.41529,-0.336742 -0.821783,-0.610185 -1.228425,-0.981277 -0.145748,-0.145679 -0.325313,-0.298079 -0.399034,-0.338667 -0.31834,-0.17526 -1.364807,-1.445769 -1.734458,-2.105793 -0.500534,-0.893721 -0.713919,-1.328902 -0.714359,-1.456875 -2.54e-4,-0.08349 -0.0616,-0.266092 -0.136256,-0.405792 -0.288358,-0.539603 -0.111893,-2.751077 0.25271,-3.167004 0.06509,-0.07425 0.204474,-0.306446 0.309752,-0.515996 0.325383,-0.647656 0.586172,-0.917185 1.232838,-1.274153 0.34289,-0.189279 0.645644,-0.380077 0.672787,-0.423995 0.08639,-0.139785 3.048227,-0.09784 3.632137,0.05144 0.947304,0.24218 2.337825,0.725012 2.545554,0.883893 0.715697,0.38636 1.642472,0.565573 2.284322,1.099907 0.09457,0.08885 0.400342,0.28321 0.679483,0.431916 0.549573,0.292773 0.756672,0.438526 1.398352,0.984136 0.837804,0.600286 1.396852,1.09148 1.824018,1.497106 0.42213,0.400996 0.809758,0.729084 0.861394,0.729084 0.314929,0.216316 0.519136,0.5613 0.788878,0.837099 0.16561,0.168246 0.60974,0.705951 0.98695,1.194901 0.37722,0.48895 0.76699,0.937821 0.86616,0.99749 0.6894,0.922903 0.836858,1.175025 1.34812,1.820598 0.3609,0.455632 0.80188,1.103332 0.97995,1.439333 0.639016,0.880185 1.03187,1.773176 1.4936,2.666766 0.30627,0.604691 0.52143,0.625049 1.13611,0.10749 0.2691,-0.226583 1.30431,-0.591995 1.90859,-0.6737 0.89823,-0.121448 2.65583,0.141514 3.57085,0.53425 0.39716,0.170462 0.86016,0.173654 0.99857,0.0069 0.0585,-0.07052 0.21525,-0.439171 0.34826,-0.819219 0.553811,-1.296312 1.438138,-2.791845 2.71181,-3.501415 0.684825,-0.457318 1.487257,-0.73577 2.14592,-0.903845 0.89725,-0.225276 2.48542,-0.179782 3.43249,0.09833 1.39646,0.410073 1.75137,0.544364 2.19043,0.828813 0.45017,0.291651 0.70906,0.537098 1.93119,1.830917 0.45695,0.483756 0.66705,0.647311 0.83149,0.647311 0.784697,-0.243663 1.332962,-0.931407 1.9151,-1.341812 1.23369,-0.8642 3.04507,-1.299058 4.31392,-1.035645 1.897397,0.424241 3.071398,2.322766 3.55344,3.506061 0.14761,0.364616 0.32212,0.683562 0.38781,0.708769 0.16341,0.06271 0.39936,-0.168354 0.60586,-0.593299 1.45196,-2.987836 1.60416,-3.279697 2.0261,-3.885304 0.388973,-0.602968 0.732589,-1.241669 1.13061,-1.817611 0.323204,-0.526413 0.646682,-1.057992 1.07365,-1.510159 0.466491,-0.723337 0.880558,-1.234234 1.22045,-1.608666 0.25376,-0.2794 0.55236,-0.639526 0.66354,-0.800279 0.24258,-0.350738 0.84604,-0.9961 1.98658,-2.12453 1.09543,-1.083795 1.14609,-1.128702 1.95233,-1.730526 1.12543,-0.840079 1.4885,-1.080039 2.15401,-1.423592 0.34925,-0.180293 0.69215,-0.396708 0.762,-0.480922 0.890321,-0.532049 1.957932,-0.868599 2.86488,-1.279224 1.10234,-0.501008 3.402185,-0.733237 4.588775,-0.463354 0.34618,0.07874 0.80146,0.236991 1.01172,0.351673 0.56984,0.310809 1.44062,1.206906 1.44062,1.482513 0.40155,0.580587 0.4951,1.067381 0.5447,1.529984 0.1846,1.74267 -0.11065,2.81236 -1.17612,4.260924 -0.56282,0.765172 -2.20786,2.497734 -2.37144,2.49759 -2.576914,1.884998 -4.899406,3.692072 -7.383545,4.917978 -1.057581,0.748285 -2.11399,1.114309 -3.19956,1.731841 -0.660163,0.404101 -1.194877,0.706441 -1.82337,1.094476 -0.86289,0.529288 -1.55279,1.026348 -1.66748,1.201391 -0.16374,0.249897 -0.085,0.591527 0.15372,0.667308 1.323228,0.662234 2.2833,1.817421 3.00288,2.963869 0.62841,1.090438 0.996284,2.384193 1.03341,3.309581 0.0491,1.273763 -0.10125,2.019242 -0.76596,3.798633 -0.38312,1.025579 -1.27751,2.52487 -1.78918,2.999258 -0.13747,0.127461 -0.22139,0.295395 -0.22139,0.443074 0,0.199685 0.0665,0.271523 0.41489,0.448053 0.36107,0.182968 0.66481,0.408878 1.33087,0.989848 0.57801,0.50417 1.41673,1.662312 1.50941,2.084258 0.031,0.141322 0.1267,0.320541 0.21258,0.398264 0.0859,0.07772 0.18224,0.280381 0.21413,0.450353 0.0319,0.169973 0.11723,0.423622 0.18965,0.563667 0.17173,0.332103 0.25703,3.051077 0.12102,3.857558 -0.15945,0.945408 -0.65882,2.556871 -0.89829,2.898761 -0.072,0.102804 -0.13092,0.249501 -0.13092,0.325993 0,0.07649 -0.0762,0.235949 -0.16934,0.354349 -0.0931,0.118399 -0.16933,0.269296 -0.16933,0.335326 0,0.06603 -0.0953,0.209536 -0.21167,0.318904 -0.11641,0.109368 -0.21166,0.23297 -0.21166,0.27467 0,0.128577 -0.50201,0.81352 -0.84548,1.15357 -0.36757,0.36392 -0.57051,0.92365 -0.43004,1.18611 0.047,0.0879 0.27976,0.33441 0.51722,0.5479 0.2896,0.26037 0.46036,0.49362 0.51867,0.70846 0.0478,0.17616 0.17463,0.43659 0.28183,0.57874 0.2547,0.33773 0.89531,1.42768 1.09215,1.85822 0.0852,0.18626 0.28536,0.53166 0.44489,0.76754 0.27308,0.40378 0.50513,1.11872 1.01499,3.127116 0.0709,0.2794 0.17786,0.60325 0.23763,0.71967 0.311211,1.89118 0.114179,3.81731 -0.20724,5.63575 -0.314574,1.38101 -1.054843,2.59393 -1.99873,3.71991 -0.48182,0.56266 -0.68585,0.89582 -0.91374,1.4921 -0.13128,0.34351 -0.31073,0.78114 -0.39878,0.97251 -0.20284,0.44087 -0.20336,0.87668 -0.002,1.32887 0.0872,0.19535 0.2358,0.56474 0.33031,0.82086 0.0945,0.25611 0.42325,0.95866 0.73053,1.5612 0.491352,1.24906 1.373707,2.46123 1.78517,3.56113 0.34908,1.0124 0.48681,1.91951 0.45168,2.97475 -0.291197,2.46067 -1.11064,4.20059 -2.30658,6.08458 -0.441244,0.94362 -1.358596,1.87496 -1.57292,2.70799 0,0.23199 0.0767,0.35093 0.43249,0.67083 0.363302,0.27189 0.719429,0.57486 0.95778,0.87568 0.81422,1.03341 1.08616,1.44265 1.61911,2.43661 0.520803,1.06794 0.622037,2.32983 0.63129,3.49051 0,1.01076 -0.0387,1.40204 -0.21898,2.21185 -0.22085,0.99226 -0.3117,1.23321 -0.82287,2.18249 -0.34887,0.64788 -0.58015,0.95276 -1.2357,1.629 -0.28405,0.293 -0.51645,0.5645 -0.51645,0.60334 0.140274,0.30053 0.424858,0.32911 0.65384,0.29593 0.53345,-0.08 1.95769,-0.0624 2.94449,0.0363 1.44186,0.14427 1.33114,0.17651 1.86272,-0.5423 0.48401,-0.65448 1.05601,-1.12129 1.51327,-1.23499 0.14557,-0.0362 0.86992,-0.55555 2.108845,-0.60391 1.54782,-0.0604 3.48496,1.99161 4.30306,1.75452 0.94172,-0.27292 1.25889,-1.19676 2.09628,-1.52789 0.41215,-0.16298 0.82148,-0.29801 0.9096,-0.30005 0.0881,-0.002 0.31262,-0.0614 0.49889,-0.13187 0.18626,-0.0705 0.54821,-0.16279 0.80433,-0.20514 0.25612,-0.0423 0.67522,-0.11358 0.93133,-0.15829 1.83576,-0.1838 3.78017,-0.12809 5.4766,0.28734 1.21858,0.22521 2.43539,0.69293 3.44992,1.38716 0.0991,0.16027 0.51798,0.10394 0.83697,-0.11253 0.16746,-0.11363 0.48709,-0.2971 0.71032,-0.40771 0.22323,-0.1106 0.52016,-0.26439 0.65986,-0.34177 0.1397,-0.0774 0.7112,-0.27772 1.27,-0.4452 1.19211,-0.51608 2.26829,-0.48221 3.42058,-0.50371 0.90877,-0.017 1.82472,-0.0721 2.71064,0.29633 0.59198,0.24619 0.7675,0.36568 1.03717,0.7061 0.33817,0.367 0.57727,0.90875 0.74982,1.30034 0.13585,0.11275 1.85488,-0.56095 2.71418,-0.8659 1.27611,-0.55622 2.32117,-0.77432 3.64109,-0.8145 0.87833,0.0611 1.61725,1.43214 1.94982,2.03544 0.15761,0.16918 0.24095,0.18767 0.6985,0.15503 1.42471,-0.0853 2.68288,-0.6153 3.9062,-0.89556 0.46567,-0.10535 0.96097,-0.23134 1.10067,-0.27998 0.7057,-0.16143 1.45374,-0.37795 2.11666,-0.48469 0.87399,-0.259 1.66815,-0.17869 2.33909,0.16766 0.34644,0.17514 0.56201,0.60327 0.64143,1.27392 0.0446,0.37665 0.0696,0.41086 0.39622,0.54162 0.46219,0.18505 1.23283,0.11543 2.84626,-0.25714 1.65521,-0.31845 2.62476,-0.39031 3.86662,-0.67604 0.28725,-0.0677 0.954,-0.13209 1.48167,-0.14301 0.93085,-0.0193 0.98403,-0.0103 1.78845,0.3017 1.06988,0.41495 1.47719,0.64683 2.00254,1.14005 0.45131,0.34196 0.4275,1.04501 0.92081,1.16179 0.1248,0.027 0.77936,0.20129 1.45458,0.38727 0.80638,0.27047 1.76563,0.32808 2.47311,0.77217 0.60328,0.39508 1.29927,0.59892 1.86224,1.04806 0.71409,0.43593 1.28002,0.98788 1.58693,1.67203 0.0907,0.17795 0.20779,0.60617 0.26016,0.95161 0.15681,1.03456 -0.0542,1.9313 -0.70605,3.00071 -0.1016,0.16667 -0.26092,0.42905 -0.35406,0.58306 -0.0931,0.15401 -0.29066,0.43674 -0.43894,0.62829 -0.44369,0.57313 -0.80667,1.25097 -0.85238,1.59172 -0.0377,0.2811 -0.004,0.36389 0.27768,0.6753 1.1934,1.08487 2.71296,2.1174 3.46979,3.22762 0.11913,0.17621 0.29151,0.39529 0.38306,0.48684 0.20172,0.24112 0.23359,0.5745 0.34594,0.82373 0.15647,0.34346 0.17475,0.50845 0.14253,1.28652 -0.0355,0.85767 -0.0515,0.92044 -0.40885,1.60694 -0.40786,0.78345 -1.06961,1.58254 -1.88117,2.27157 -0.82895,0.70379 -0.89252,0.9178 -0.47117,1.58602 0.46852,0.74304 0.70678,1.24972 0.97543,2.07434 0.49008,1.40309 0.6606,2.60659 0.0795,3.85472 -0.3828,0.79681 -1.22384,1.59192 -2.049,1.93708 -0.65586,0.27434 -0.96943,0.51297 -0.96943,0.73775 0,0.19623 0.54758,1.13624 0.88181,1.51378 0.24889,0.28113 0.47966,0.70573 0.89285,1.64276 0.19344,0.43868 0.3403,1.43425 0.34137,2.31413 8.4e-4,0.63538 -0.31437,1.791 -0.69879,2.56244 -0.46426,0.93168 -1.31613,1.60867 -2.0242,1.60867 -0.13983,0 -0.4891,0.0547 -0.77614,0.12158 -0.28704,0.0669 -0.941,0.18414 -1.45323,0.26059 -0.51223,0.0764 -1.01517,0.19284 -1.11763,0.25862 -0.35016,0.22482 -0.37969,0.86617 -0.12253,2.66121 0.0837,1.44134 0.43432,3.84243 -0.61441,4.90426 -0.57082,0.74771 -1.16083,1.26313 -1.80953,1.7392 -0.46259,0.38924 -1.87541,0.80791 -3.91352,1.1597 -0.86132,0.14867 -1.3704,0.18096 -2.73471,0.17346 -1.00665,-0.0593 -1.6393,-0.27357 -2.12382,0.0837 -0.10412,0.16009 -0.13593,0.75927 -0.17891,3.36971 -0.0288,1.74625 -0.0835,4.6609 -0.12175,6.477 0.046,13.80609 -0.0993,25.65337 0.57835,38.94667 0.0501,0.93133 0.0917,2.54228 0.0923,3.57988 0.001,2.14464 0.0321,2.28656 0.59357,2.73771 0.19604,0.15753 0.41501,0.40071 0.48659,0.54041 0.0716,0.1397 0.21907,0.36052 0.32772,0.49071 0.2794,0.33479 0.56146,1.29383 0.49548,1.6847 -0.0397,0.23539 -0.14769,0.39049 -0.43646,0.62711 -0.63071,0.51682 -1.19176,0.63185 -3.49773,0.71714 -1.09432,0.0405 -2.45661,0.11267 -3.02732,0.16044 -1.01445,0.0849 -1.38501,0.0619 -2.72343,-0.16905 -0.8626,-0.14886 -1.36125,-0.67186 -1.36125,-1.42771 0,-0.77523 0.43453,-1.6168 1.25583,-2.43218 0.22888,-0.22724 0.45906,-0.49638 0.5115,-0.5981 0.14294,-0.27728 0.1159,-1.52616 -0.0456,-2.10444 -0.0775,-0.27755 -0.14747,-0.75227 -0.1555,-1.05496 -0.0239,-0.90114 -0.38632,-4.18448 -0.47149,-4.27143 -0.0433,-0.0442 -0.0808,-0.27284 -0.0833,-0.508 -0.002,-0.23516 -0.0603,-0.73237 -0.12846,-1.1049 -0.0682,-0.37253 -0.16022,-1.03807 -0.20451,-1.47898 -0.0443,-0.4409 -0.10119,-0.8981 -0.12644,-1.016 -0.0252,-0.11789 -0.0481,-0.3858 -0.0508,-0.59535 -0.92913,-11.2966 -3.34224,-23.74183 -3.67525,-35.51767 -0.0237,-0.88477 -0.0937,-2.02416 -0.15547,-2.53199 -0.12615,-1.03646 -0.17097,-1.10398 -1.0267,-1.54684 -0.54121,-0.28009 -0.78057,-0.45084 -1.64083,-1.1705 -0.38965,-0.32597 -0.79039,-0.63974 -0.89055,-0.69726 -0.2633,-0.15122 -0.68498,-0.13059 -0.83977,0.0411 -0.14445,0.16022 -0.15715,0.30229 -0.30848,3.45017 -0.48288,11.54268 -1.12005,22.44227 -1.23665,33.77652 -0.0277,2.79099 -0.0673,5.10203 -0.0881,5.13563 -0.0208,0.0336 -0.043,2.64592 -0.0493,5.80515 -0.0129,6.43922 -0.0416,6.12401 0.60422,6.64296 0.19604,0.15752 0.41501,0.4007 0.48659,0.5404 0.0716,0.1397 0.21907,0.36052 0.32772,0.49071 0.2794,0.33479 0.56146,1.29384 0.49548,1.6847 -0.0397,0.23539 -0.14769,0.39049 -0.43646,0.62712 -0.63071,0.51681 -1.19176,0.63185 -3.49773,0.71713 -1.09432,0.0405 -2.45661,0.11268 -3.02732,0.16045 -1.01445,0.0849 -1.38501,0.0619 -2.72343,-0.16906 -0.8626,-0.14886 -1.36125,-0.67185 -1.36125,-1.4277 0,-0.77524 0.43453,-1.61681 1.25583,-2.43218 0.22888,-0.22725 0.45906,-0.49639 0.5115,-0.5981 -1.34913,-16.50439 -1.8716,-34.84229 -3.11847,-49.5144 -0.0442,-0.46567 -0.0821,-1.36715 -0.0844,-2.0033 -0.004,-1.25316 -0.14165,-1.83291 -0.57282,-2.42053 -0.30808,-0.41987 -0.5434,-0.37248 -0.9769,0.19675 -0.77681,1.02003 -1.62407,2.04157 -1.95712,2.3597 -0.62988,0.58979 -1.14067,1.00894 -2.07951,1.44107 -0.70586,0.22553 -2.5724,0.49033 -3.60409,0.44674 -0.96056,-0.0406 -2.31579,-0.25312 -2.83634,-0.44482 -0.73663,-0.27127 -2.35669,-1.00502 -2.62922,-1.19082 -0.81676,-0.3323 -1.60024,-0.82453 -2.23911,-1.33962 -1.07085,-0.88899 -1.48158,-1.00693 -1.79917,-0.51664 -0.10477,0.16175 -0.1905,0.32708 -0.1905,0.3674 0,0.19386 -0.91581,1.41367 -1.40474,1.87104 -0.61761,0.57774 -1.27402,0.94299 -2.0614,1.14702 -0.69385,0.1798 -2.355205,0.1433 -3.137855,-0.0689 -0.72063,-0.19541 -1.64827,-0.65928 -2.15376,-1.07699 -0.461536,-0.31909 -0.906422,-0.69525 -1.23815,-1.01174 -0.7004,-0.67002 -0.71281,-0.67733 -1.15073,-0.67733 -1.157364,0.23527 -2.218869,0.95306 -3.31409,1.27286 -0.47859,0.1363 -0.63443,0.21984 -0.69185,0.37088 -0.0408,0.10723 -0.0769,3.21976 -0.0803,6.91676 -0.003,3.69698 -0.047,7.76954 -0.097,9.05013 -0.05,1.28058 -0.0674,3.24273 -0.0387,4.36033 0.0287,1.1176 0.0834,3.84175 0.12152,6.05367 0.321317,4.85595 0.09368,8.4534 0.34898,13.1719 0.0483,0.83477 0.12476,2.81316 0.16982,4.39643 0.0902,3.17023 0.0954,3.25967 0.1868,3.25967 0.0349,0 0.0635,0.66797 0.0635,1.48438 0,1.70443 0.0494,1.89924 0.5924,2.33555 0.19604,0.15752 0.415,0.4007 0.48659,0.5404 0.0716,0.1397 0.21906,0.36052 0.32772,0.49071 0.2794,0.33479 0.56146,1.29383 0.49548,1.6847 -0.0397,0.23539 -0.14769,0.39049 -0.43646,0.62712 -0.6307,0.51681 -1.19176,0.63185 -3.49773,0.71713 -1.09432,0.0405 -2.45661,0.11268 -3.02732,0.16044 -1.01445,0.0849 -1.38501,0.0619 -2.72342,-0.16905 -0.86259,-0.14886 -1.36124,-0.67185 -1.36124,-1.42771 0,-0.77523 0.43453,-1.6168 1.25583,-2.43217 0.22889,-0.22725 0.45906,-0.49639 0.5115,-0.59811 0.14544,-0.28212 0.11607,-1.52764 -0.0496,-2.10444 -0.0797,-0.27754 -0.13953,-0.68559 -0.13289,-0.90679 0.008,-0.28245 -0.0211,-0.40216 -0.0995,-0.40216 -0.0784,0 -0.139,-0.24548 -0.20376,-0.8255 -0.10579,-0.9474 -0.14434,-1.29178 -0.26299,-2.3495 -0.047,-0.4191 -0.10358,-0.80927 -0.12572,-0.86704 -0.0221,-0.0578 -0.0816,-0.51195 -0.13222,-1.00927 -0.0506,-0.49732 -0.14661,-1.13585 -0.21338,-1.41895 -0.0668,-0.28311 -0.12196,-0.72862 -0.12265,-0.99002 -6.8e-4,-0.2614 -0.0429,-0.6805 -0.0937,-0.93133 -0.0509,-0.25084 -0.10598,-0.68466 -0.12252,-0.96406 -0.0684,-1.15601 -0.76527,-6.94331 -0.85317,-7.08554 -0.0217,-0.0352 -0.0775,-0.51275 -0.12392,-1.06123 -0.0464,-0.54848 -0.1173,-1.30203 -0.15757,-1.67456 -0.0403,-0.37254 -0.11569,-1.08592 -0.16763,-1.58529 -0.0519,-0.49938 -0.15019,-1.22328 -0.21835,-1.60867 -0.0682,-0.38539 -0.12485,-0.96741 -0.12597,-1.29338 -0.001,-0.32596 -0.038,-0.72601 -0.0819,-0.889 -0.0439,-0.16298 -0.10024,-0.60113 -0.12512,-0.97366 -0.0477,-0.7147 -0.18155,-1.70878 -0.30994,-2.30233 -0.0422,-0.19525 -0.0775,-0.72865 -0.0783,-1.18533 -8.4e-4,-0.45669 -0.0397,-1.17324 -0.0865,-1.59234 -0.0467,-0.4191 -0.12095,-1.2573 -0.16494,-1.86267 -0.044,-0.60537 -0.11846,-1.25307 -0.1655,-1.43933 -0.047,-0.18627 -0.0892,-0.81492 -0.0937,-1.397 -0.004,-0.58209 -0.0452,-1.26789 -0.0904,-1.524 -0.085,-0.48165 -0.21711,-1.76157 -0.4456,-4.318 -0.0728,-0.81492 -0.17148,-1.90077 -0.2192,-2.413 -0.0477,-0.51224 -0.11037,-1.50284 -0.13921,-2.20134 -0.0552,-1.337 -0.14177,-1.651 -0.45511,-1.651 -0.20042,0 -0.91115,0.4401 -1.06466,0.65926 -0.0612,0.0874 -0.38989,0.29821 -0.73033,0.4684 -0.66407,0.33196 -1.29115,0.46305 -2.48369,0.51924 -0.39217,0.0185 -0.75244,0.058 -0.8006,0.0877 -0.0482,0.0298 -0.14933,0.17354 -0.22481,0.3195 -0.11678,0.22584 -0.1309,0.49309 -0.0948,1.7938 0.0234,0.84063 0.0854,1.63567 0.13783,1.76676 0.0625,0.15623 0.096,1.04594 0.0972,2.58234 0.001,1.28919 0.0637,3.58223 0.1394,5.09565 0.600996,10.66694 0.98266,19.95877 1.72645,30.43767 0.0441,0.60536 0.12266,1.71026 0.17467,2.45533 0.052,0.74507 0.12812,1.36737 0.16913,1.38289 0.041,0.0155 0.0746,0.69302 0.0746,1.50556 0,1.69672 0.0498,1.8925 0.5924,2.32848 0.19604,0.15752 0.415,0.4007 0.48659,0.5404 0.0716,0.1397 0.21906,0.36052 0.32771,0.49071 0.27941,0.33479 0.56147,1.29384 0.49549,1.6847 -0.0397,0.23539 -0.14769,0.39049 -0.43646,0.62712 -0.6307,0.51681 -1.19176,0.63185 -3.49773,0.71713 -1.09432,0.0405 -2.45847,0.11284 -3.03145,0.1608 -0.57298,0.048 -1.08733,0.0817 -1.143,0.0749 -0.0557,-0.007 -0.32982,-0.0458 -0.60922,-0.0867 z m 1.50837,-150.39765 c 1.60214,-0.12694 2.61101,-0.28515 3.19063,-0.50036 0.16299,-0.0605 0.73449,-0.21573 1.27,-0.34492 1.6316,-0.39362 2.69444,-0.96898 4.13046,-2.23596 1.57053,-1.38566 2.21954,-2.7273 2.21954,-4.58824 0,-1.13029 -0.20203,-1.87095 -0.77441,-2.83907 -0.35775,-0.605086 -1.45353,-1.735686 -2.06192,-2.127416 -1.10355,-0.71057 -1.81443,-1.11616 -2.05825,-1.17434 -0.12526,-0.0299 -0.2798,-0.0955 -0.34342,-0.14586 -0.12994,-0.10282 -0.32343,-0.17781 -1.69228,-0.6559 -0.5399,-0.18856 -1.03167,-0.3134 -1.12184,-0.28478 -3.195177,-0.358559 -5.802328,-0.565696 -8.62542,0.10366 -0.0927,0.0579 -0.2451,0.10522 -0.33874,0.10522 -0.14666,0 -1.28454,0.37274 -2.41437,0.79089 -0.36681,0.13575 -1.36069,0.67898 -1.56634,0.85611 -0.0699,0.0602 -0.26714,0.17445 -0.43842,0.25396 -0.17128,0.0795 -0.66868,0.49395 -1.10534,0.92097 -0.67896,0.66398 -0.84728,0.88674 -1.16245,1.538396 -0.20269,0.4191 -0.44809,0.9144 -0.54532,1.10067 -0.15432,0.29561 -0.17583,0.4786 -0.16918,1.43933 0.008,1.16519 0.0317,1.25933 0.64761,2.58233 0.81756,1.75608 2.97608,3.48163 5.32788,4.25917 2.2159,0.73261 2.78301,0.83563 5.85392,1.06343 0.0845,0.006 0.88464,-0.0465 1.778,-0.11729 z M 47.877695,65.602562 c 0.231513,-0.952118 -0.519049,-1.931115 -0.92171,-2.672164 -0.63945,-1.183677 -0.94382,-1.661943 -1.24556,-1.957194 -0.705948,-1.106015 -0.955088,-1.497313 -1.51849,-2.231163 -1.630828,-2.315061 -4.055218,-4.294761 -6.002567,-5.083716 -0.395817,-0.160175 -0.833967,-0.342315 -0.973667,-0.404754 -0.344882,-0.154146 -1.317672,-0.226133 -2.001915,-0.148142 -0.820442,0.09351 -1.149917,0.349959 -1.552888,1.208675 -0.30122,0.64189 -0.316545,0.714814 -0.279528,1.330147 0.03147,0.523122 0.0924,0.750831 0.310152,1.159026 0.440195,0.825197 0.716774,1.157691 1.679788,2.019389 1.179361,1.055282 2.194057,1.750835 3.757655,2.575792 2.356683,1.243392 4.142447,2.26444 4.65684,2.662649 0.16377,0.126774 0.59702,0.384433 0.96278,0.572577 0.36576,0.188142 0.70974,0.379188 0.76439,0.424544 0.0547,0.04536 0.41992,0.21408 0.81171,0.374942 0.78145,0.320848 1.34053,0.38183 1.55297,0.169392 z m 37.53157,-3.30173 c 0.10314,-0.06667 0.22691,-0.121222 0.27504,-0.121222 1.622112,-0.838961 3.32294,-1.962365 4.74489,-2.794 1.175236,-0.69172 0.963995,-0.56615 2.05979,-1.124037 0.59761,-0.304181 1.16911,-0.62641 1.27,-0.716064 0.10088,-0.08966 0.73588,-0.528776 1.4111,-0.975825 2.018114,-1.230367 4.418914,-4.616709 1.85236,-6.228186 -2.390468,-0.557567 -4.943851,0.841628 -6.39026,1.926911 -2.002949,1.811558 -3.929022,4.166113 -5.17767,6.228201 -0.88165,1.464486 -0.80122,1.317148 -1.29062,2.364104 -0.52044,1.113339 -0.53824,1.419835 -0.0996,1.714446 l 0.28191,0.18933 0.43775,-0.171217 c 0.24077,-0.09417 0.52214,-0.225768 0.62528,-0.292441 z"
       id="path179"
       sodipodi:nodetypes="csssscsssccccscssccsssssscsccssssccsssssscssssssssssssssssssscsssssssssssssscsssscsssssscssssssssssssssssssssscssssscccccccsscssssssccsccccsccccsssccccsssccccscccccssssccssccsccccscccssssscsssssscscsscssscsccccsscsccccccccccsscccssssscsccccssscacccccccccccssccssccccccsssssccccssssccsssscssssscccsccscccsssssssssssssscssscccssssccscsssssssssscccssccssccsssssccccscssccssssssssssssssscssssssscsssssscsssscsscsssssssscscssccssssssssssccccssssssscsccsssssssccsccccccccssssssssscsccscccsccccsscsss"
       inkscape:label="Body" /><path
       style="fill:#939dac;stroke-width:0.0846667;fill-opacity:1"
       d="m 86.817932,104.5034 c -2.4419,-0.84399 -3.440442,-1.65052 -4.61557,-2.79303 -1.639042,-1.35771 -2.813204,-3.092374 -4.037673,-4.728554 -0.750523,-1.171868 -1.422056,-2.518279 -1.868382,-3.683311 -1.197036,-2.348593 -0.94645,-5.008896 -1.510488,-7.464942 -0.216064,-0.485272 -2.038827,-1.066328 -4.239423,-1.351434 -0.989661,-0.128255 -2.872688,-0.208105 -3.292443,-0.13968 -0.237765,0.03876 -0.378617,0.310862 -0.814109,1.572723 -0.410187,1.188535 -0.975136,2.464208 -1.277306,2.884195 -0.26015,0.514888 -0.640747,1.008954 -0.897017,1.460667 -0.151664,0.379059 -1.305306,1.978594 -1.788831,2.480226 -0.24502,0.254195 -0.668115,0.724329 -0.940212,1.044744 -0.275659,0.32461 -0.769386,0.768451 -1.115015,1.002352 -0.341163,0.230879 -0.624457,0.450341 -0.629545,0.487694 -0.0189,0.138879 -0.761723,0.751191 -1.39473,1.14971 -0.945794,0.648752 -1.982456,1.228482 -2.645848,1.580497 -1.854835,1.010293 -3.462231,1.204041 -5.335121,1.515145 -2.388386,0.152852 -4.061618,-0.219368 -6.599806,-1.105704 -0.780412,-0.264087 -1.75631,-0.79282 -3.086621,-1.672299 -0.35695,-0.235981 -0.665046,-0.465097 -0.684657,-0.509146 -0.01961,-0.04405 -0.217859,-0.205051 -0.440546,-0.357782 -0.72311,-0.495947 -1.604549,-1.376524 -2.356595,-2.354287 -0.910727,-1.184071 -1.751394,-2.576948 -1.995048,-3.305539 -0.05782,-0.17291 -0.224453,-0.574711 -0.370288,-0.892894 -0.145834,-0.318181 -0.258755,-0.62573 -0.250935,-0.683441 0.0078,-0.05771 -0.05964,-0.303294 -0.149926,-0.54574 -0.226248,-0.607591 -0.359977,-1.276858 -0.428134,-2.142673 -0.03178,-0.403742 -0.09957,-0.888891 -0.150643,-1.078112 -0.06076,-0.225119 -0.05996,-0.712297 0.0023,-1.409452 0.05235,-0.58598 0.07627,-1.150343 0.05317,-1.25414 C 33.9324,82.092002 33.770982,81.943288 33.532613,81.816837 32.776907,81.415948 32.7816,81.435881 33.04155,79.7311 c 0.270788,-1.775862 0.286745,-1.800382 1.161979,-1.78522 0.622989,0.01079 0.820016,-0.121509 0.987181,-0.662871 0.138167,-0.447462 0.556639,-0.989112 1.654556,-2.141589 0.109567,-0.115016 0.334252,-0.359883 0.499293,-0.54415 1.011959,-0.926175 2.318832,-1.848886 3.370972,-2.353953 1.05214,-0.505067 3.066116,-1.220981 4.469893,-1.496634 0.956339,-0.187792 1.637717,-0.237666 2.301047,-0.362655 1.884051,0.292289 43.429468,5.902281 46.635926,6.303972 1.539462,0.322375 2.045809,0.320204 2.421938,0.52081 0.175303,0.0935 0.699272,0.275475 1.164372,0.404401 0.525898,0.145779 0.939615,0.311172 1.094172,0.437424 0.136694,0.111656 0.433694,0.255239 0.660002,0.319072 0.226302,0.06384 0.572229,0.206506 0.768719,0.317047 0.19648,0.110546 0.51952,0.280314 0.71784,0.37727 0.54146,0.264704 1.35708,0.758543 1.57591,0.954177 0.10656,0.09526 0.33202,0.287698 0.50103,0.427639 1.78893,1.481269 2.96958,2.892299 3.36878,4.026162 0.0616,0.174827 0.20335,0.547062 0.31511,0.827199 0.43046,1.078977 0.65635,1.753827 0.67772,2.024605 0.0315,0.399234 0.18386,0.557965 0.58882,0.613392 0.59746,0.08181 0.95061,0.27612 0.98647,0.542871 0.0174,0.129476 -0.058,0.870087 -0.16752,1.645791 -0.22704,1.608454 -0.23396,1.620835 -0.90949,1.653392 -0.22964,0.01106 -0.46876,0.07256 -0.53139,0.136638 -0.0627,0.06407 -0.18502,0.460534 -0.272,0.881005 -0.38947,1.230373 -0.54082,2.446346 -1.17254,3.57473 -0.9411,1.920621 -2.599,3.586368 -3.96593,4.984645 -2.391706,1.99494 -5.477933,3.60745 -8.49103,3.75038 -3.013097,0.14293 -4.193548,0.24074 -6.635448,-0.60325 z M 75.115153,83.093631 c 0.06103,-0.11227 0.140487,-0.421611 0.176508,-0.687431 0.04058,-0.299505 0.176202,-0.700818 0.356588,-1.055239 0.16011,-0.314559 0.302331,-0.654768 0.316052,-0.756018 0.03688,-0.27215 0.751263,-1.305387 1.260846,-1.823614 0.244655,-0.248801 0.649146,-0.591645 0.898867,-0.761878 0.492803,-0.335938 0.567345,-0.480385 0.334727,-0.648602 -0.208475,-0.150753 -12.606644,-1.830811 -12.847714,-1.740975 -0.09573,0.03568 -0.177346,0.0919 -0.18137,0.124944 -0.0041,0.03305 0.218386,0.37735 0.494241,0.76512 0.275856,0.387771 0.514431,0.785358 0.530169,0.883527 0.01574,0.09817 0.09618,0.30299 0.178766,0.455157 0.190819,0.351596 0.517086,1.365226 0.547403,1.700645 0.01274,0.141 0.0622,0.506004 0.109899,0.81112 0.0477,0.305115 0.06481,0.716492 0.03802,0.914172 -0.03042,0.224509 -2.62e-4,0.439146 0.08035,0.571827 l 0.129055,0.212409 1.305662,0.07636 c 0.718114,0.042 1.796241,0.144601 2.395839,0.228021 1.050732,0.146218 3.301748,0.693215 3.403732,0.827178 0.113106,0.148557 0.367318,0.09651 0.472386,-0.09672 z"
       id="path193"
       inkscape:label="Sunglasses"
       sodipodi:nodetypes="zcccccssccssscccccssssssccssccsssssczsccsssssssccsscscscccczzcssssssscssssssscscscc" /><path
       style="fill:#939dac;stroke-width:0.0536066;fill-opacity:1"
       d="m 64.244026,106.98807 c -0.385988,-0.0864 -0.851953,-0.27433 -1.143582,-0.46125 -0.336424,-0.21563 -0.920277,-0.83447 -0.920277,-0.97544 0,-0.0402 -0.06306,-0.14819 -0.14014,-0.23979 -0.07708,-0.0916 -0.18369,-0.30453 -0.236919,-0.47317 -0.05324,-0.16865 -0.139141,-0.40312 -0.190914,-0.52106 -0.06866,-0.15641 -0.09522,-0.36422 -0.09812,-0.76814 l -0.0038,-0.55372 0.175066,-0.15658 c 0.146757,-0.13124 0.22095,-0.15656 0.458811,-0.15656 0.15606,0 0.32694,0.0315 0.379732,0.0702 0.101994,0.0746 0.185595,0.40691 0.191369,0.76073 0.0044,0.28158 0.346169,1.25005 0.498352,1.41299 0.497302,0.53241 0.59,0.5984 1.028469,0.73214 l 0.43688,0.13326 0.592204,-0.15158 c 0.745096,-0.19072 0.970573,-0.36009 1.280252,-0.9617 l 0.212314,-0.41245 0.01602,-1.8314 0.01602,-1.8314 -0.230422,-0.18625 c -0.286855,-0.23187 -0.389229,-0.28348 -0.659273,-0.33231 -0.218278,-0.0394 -0.776994,-0.323819 -1.07719,-0.548229 -0.09123,-0.0683 -0.195466,-0.12399 -0.231625,-0.12399 -0.06699,0 -0.969466,-0.90444 -0.969466,-0.97157 0,-0.0203 -0.08443,-0.13788 -0.187621,-0.26139 -0.103197,-0.12352 -0.187628,-0.25488 -0.187628,-0.29192 0,-0.037 -0.06262,-0.18518 -0.139216,-0.32919 -0.196207,-0.36901 -0.197448,-0.84865 -0.0031,-1.25915 0.170247,-0.35987 0.367645,-0.48576 0.975811,-0.62233 0.381206,-0.0856 0.741835,-0.0958 3.401582,-0.0965 3.085071,-6.3e-4 3.46384,0.021 4.018821,0.232 0.199587,0.0759 0.270627,0.14454 0.425781,0.41159 0.164688,0.28347 0.186132,0.36394 0.185411,0.69579 -6.34e-4,0.33529 -0.02323,0.41591 -0.211352,0.75711 -0.452214,0.8202 -0.964951,1.43673 -1.50202,1.80604 -0.434265,0.29862 -0.992792,0.558599 -1.336649,0.622169 -0.445331,0.0823 -0.85762,0.36245 -0.940473,0.63897 -0.09782,0.32652 -0.03736,3.07684 0.07384,3.35901 0.04647,0.11793 0.09878,0.29886 0.116235,0.40205 0.03754,0.22192 0.493102,0.81605 0.741658,0.96721 0.262662,0.15974 0.906391,0.28435 1.261101,0.24411 0.621721,-0.0705 0.857829,-0.16553 1.12624,-0.4533 0.452555,-0.48518 0.583238,-0.68647 0.621398,-0.95714 0.08183,-0.58043 0.247827,-1.36208 0.310636,-1.46264 0.172957,-0.27696 0.771841,-0.24397 0.924328,0.0509 0.14691,0.2841 0.155831,0.68489 0.02931,1.31685 -0.08292,0.41414 -0.164187,0.66179 -0.273938,0.83476 -0.08582,0.13525 -0.156045,0.2647 -0.156045,0.28765 0,0.0776 -0.395428,0.59056 -0.667561,0.86588 -0.430365,0.43539 -0.764079,0.58911 -1.676517,0.77232 -0.382182,0.0768 -0.673634,0.0489 -1.388105,-0.13235 -0.533016,-0.13525 -0.846723,-0.32782 -1.304604,-0.80082 -0.131441,-0.13578 -0.283411,-0.24688 -0.337703,-0.24688 -0.153519,0 -0.384005,0.13814 -0.554519,0.33234 -0.45745,0.52101 -1.425022,0.9076 -2.238474,0.89439 -0.210528,-0.003 -0.431023,-0.017 -0.489987,-0.0302 z"
       id="path298"
       inkscape:label="Nose" /></g></svg>
