<?xml version="1.0" encoding="UTF-8" standalone="no"?>
<!-- Created with Inkscape (http://www.inkscape.org/) -->

<svg
   width="405.47946mm"
   height="229.68999mm"
   viewBox="0 0 443.479 251.2154"
   version="1.1"
   id="svg5"
   xml:space="preserve"
   inkscape:version="1.2.1 (9c6d41e410, 2022-07-14)"
   sodipodi:docname="logo.svg"
   xmlns:inkscape="http://www.inkscape.org/namespaces/inkscape"
   xmlns:sodipodi="http://sodipodi.sourceforge.net/DTD/sodipodi-0.dtd"
   xmlns="http://www.w3.org/2000/svg"
   xmlns:svg="http://www.w3.org/2000/svg"><sodipodi:namedview
     id="namedview7"
     pagecolor="#ffffff"
     bordercolor="#000000"
     borderopacity="0.25"
     inkscape:showpageshadow="2"
     inkscape:pageopacity="0.0"
     inkscape:pagecheckerboard="0"
     inkscape:deskcolor="#d1d1d1"
     inkscape:document-units="mm"
     showgrid="false"
     inkscape:zoom="0.57309185"
     inkscape:cx="1242.3837"
     inkscape:cy="58.454853"
     inkscape:window-width="3824"
     inkscape:window-height="2080"
     inkscape:window-x="26"
     inkscape:window-y="23"
     inkscape:window-maximized="0"
     inkscape:current-layer="layer2"
     showborder="false"
     borderlayer="true"
     shape-rendering="auto" /><defs
     id="defs2" /><g
     inkscape:label="Lama"
     inkscape:groupmode="layer"
     id="layer1"
     transform="translate(233.18189,-44.661726)" /><g
     inkscape:groupmode="layer"
     id="layer2"
     inkscape:label="Text"
     transform="translate(260.93059)"><g
       id="g376"
       transform="translate(15.868539,10.979678)"><path
         style="fill:#ff6600;stroke-width:0.0846667"
         d="m 67.441745,261.21656 c -1.47529,-0.21624 -1.87113,-0.38077 -2.18194,-0.90694 -0.43452,-0.73558 0.0305,-2.03935 1.10944,-3.11052 0.22889,-0.22725 0.45906,-0.49639 0.5115,-0.5981 0.14544,-0.28212 0.11607,-1.52764 -0.0496,-2.10444 -0.0797,-0.27755 -0.13953,-0.6856 -0.13289,-0.90679 0.007,-0.22119 -0.0206,-0.40217 -0.0606,-0.40217 -0.04,0 -0.11043,-0.20002 -0.15654,-0.4445 -0.28517,-1.51213 -0.36595,-2.02474 -0.32545,-2.06525 0.0251,-0.0251 -0.008,-0.22321 -0.074,-0.44015 -0.0658,-0.21694 -0.12012,-0.55805 -0.12063,-0.75803 -2.650334,-10.63838 -2.703127,-22.60963 -5.00607,-33.20674 -0.0512,-0.20955 -0.12126,-0.7239 -0.15562,-1.143 -0.0344,-0.4191 -0.10645,-0.86925 -0.16021,-1.00034 -0.0538,-0.13109 -0.0979,-0.47399 -0.0981,-0.762 -1.7e-4,-0.28801 -0.0579,-0.87876 -0.12832,-1.31277 -0.0704,-0.43401 -0.10575,-0.82509 -0.0786,-0.86906 0.0272,-0.044 0.004,-0.29776 -0.0511,-0.564 -0.0553,-0.26624 -0.13382,-0.78957 -0.17456,-1.16295 -0.0753,-0.69036 -0.0881,-0.79791 -0.20229,-1.69488 -0.0356,-0.2794 -0.12332,-0.57542 -0.19504,-0.65784 -0.0959,-0.11021 -0.13386,-0.36777 -0.14346,-0.97367 -0.007,-0.4531 -0.0613,-1.12862 -0.12032,-1.50115 -0.059,-0.37254 -0.14467,-0.93122 -0.19038,-1.24152 -0.10843,-0.73596 -0.23721,-0.85073 -1.04069,-0.92747 -0.74169,-0.0709 -2.25017,-0.5 -2.92427,-0.83193 -0.32849,-0.16175 -1.1733,-0.64436 -1.43933,-0.82225 -0.16299,-0.10897 -0.43582,-0.29188 -0.60631,-0.40646 -0.502,-0.33736 -1.43353,-1.5996 -1.59436,-2.16038 -0.0403,-0.1406 -0.1459,-0.36058 -0.23461,-0.48882 -0.16425,-0.23746 -0.32875,-0.81782 -0.61806,-2.18051 -0.12509,-0.58922 -0.16202,-1.11164 -0.16288,-2.30403 -9.9e-4,-1.37156 0.0186,-1.59151 0.17725,-1.98967 0.29814,-0.74821 0.42167,-1.23544 0.36772,-1.4504 -0.13377,-0.53299 -0.87035,-0.92872 -2.62042,-1.40785 -1.76113,-0.48215 -2.83633,-1.41863 -2.83633,-2.47039 0,-0.35045 0.61578,-2.39528 0.77255,-2.56542 0.0408,-0.0442 0.0741,-0.15176 0.0741,-0.23892 0,-0.0872 0.0905,-0.31768 0.20103,-0.51224 0.42397,-0.74605 0.55658,-1.84753 0.28723,-2.38574 -0.19898,-0.3976 -1.1347,-0.889 -1.69281,-0.889 -0.19616,0 -0.50116,-0.0876 -0.7303,-0.20978 -0.21642,-0.11538 -0.62039,-0.31235 -0.89772,-0.43772 -1.03143,-0.46625 -1.644431,-1.12071 -1.968099,-2.1012 -0.370797,-1.12326 -0.174644,-2.93895 0.53083,-4.91364 1.024503,-2.86766 1.034112,-3.32056 0.09161,-4.31787 -1.031615,-1.0916 -1.952328,-2.43041 -2.270893,-3.30213 -0.468206,-1.28118 -0.493547,-1.41559 -0.493547,-2.61784 0,-0.86072 0.03103,-1.20365 0.121533,-1.3433 0.06684,-0.10313 0.220301,-0.48314 0.341019,-0.84446 0.120717,-0.36131 0.323202,-0.82028 0.449967,-1.01994 0.265407,-0.41801 0.865543,-1.02173 1.320906,-1.32879 0.58797,-0.39648 0.729908,-0.52021 0.729908,-0.6363 0,-0.14195 -0.334939,-0.7289 -0.4824,-0.84536 -0.231101,-0.18253 -0.893039,-1.42096 -1.718171,-3.21456 -0.348147,-0.75678 -0.349433,-0.76334 -0.39803,-2.032 l -0.04875,-1.27278 0.326771,-1.05833 c 0.300484,-0.9732 0.359289,-1.09025 0.731011,-1.45501 0.439535,-0.4313 0.495313,-0.60696 0.236685,-0.74538 -0.09216,-0.0493 -0.327804,-0.32688 -0.523661,-0.6168 -0.195858,-0.28993 -0.539558,-0.71564 -0.763778,-0.94602 -0.22422,-0.23039 -0.407815,-0.49709 -0.407989,-0.59267 -1.7e-4,-0.0956 -0.0761,-0.29808 -0.168715,-0.44999 -0.09262,-0.1519 -0.193468,-0.4948 -0.22411,-0.762 -0.03064,-0.26719 -0.104164,-0.62508 -0.163383,-0.79532 -0.139901,-0.40219 -0.06645,-2.25497 0.09687,-2.44338 0.06114,-0.0705 0.212416,-0.45153 0.336176,-0.84667 0.12376,-0.39514 0.293044,-0.79463 0.376185,-0.88776 0.08314,-0.0931 0.178853,-0.26458 0.212694,-0.381 0.07756,-0.26683 0.472259,-0.97604 0.951748,-1.71017 0.356744,-0.54619 0.365418,-0.57482 0.234629,-0.77443 -0.07469,-0.114 -0.276877,-0.30512 -0.449293,-0.42472 -0.339413,-0.23542 -1.020367,-0.98837 -1.395961,-1.54354 -0.128941,-0.19058 -0.381586,-0.80112 -0.561434,-1.35675 -0.306874,-0.94806 -0.323015,-1.04919 -0.262261,-1.64315 0.0877,-0.85737 0.264815,-1.70625 0.388207,-1.86057 0.05585,-0.0699 0.178101,-0.2794 0.271668,-0.46567 0.425495,-0.84705 0.545896,-1.04692 0.741186,-1.23038 0.114828,-0.10788 0.208778,-0.24332 0.208778,-0.30099 0,-0.0577 0.129691,-0.30178 0.288204,-0.54247 0.158512,-0.24068 0.313158,-0.57063 0.343659,-0.73322 0.0305,-0.16258 0.129684,-0.41665 0.220408,-0.5646 0.139714,-0.22785 0.157274,-0.36616 0.114773,-0.90401 -0.0276,-0.34925 -0.105673,-0.81157 -0.173501,-1.02739 -0.06783,-0.21581 -0.158127,-0.57776 -0.200666,-0.80433 -0.04254,-0.22657 -0.193207,-0.92629 -0.334819,-1.55494 -0.141612,-0.62865 -0.330637,-1.50495 -0.420055,-1.94734 -0.08942,-0.44238 -0.20385,-0.91159 -0.254291,-1.04268 -0.05044,-0.13109 -0.09154,-0.62639 -0.09132,-1.10066 3.39e-4,-0.72313 0.03417,-0.94432 0.209657,-1.37032 0.115095,-0.2794 0.210169,-0.60625 0.211274,-0.72632 0.0023,-0.25419 0.367344,-0.83236 0.898277,-1.42288 0.205554,-0.22863 0.373733,-0.49053 0.373733,-0.58201 0,-0.0915 -0.1854,-0.44784 -0.412001,-0.7919 -0.226601,-0.34406 -0.55454,-0.91131 -0.728753,-1.26056 -0.174214,-0.34925 -0.387252,-0.71194 -0.473419,-0.80598 -0.08617,-0.094 -0.292556,-0.51314 -0.458644,-0.93133 -0.391288,-0.98524 -0.445003,-1.10871 -0.682851,-1.5696 -0.307459,-0.59577 -0.477447,-1.92956 -0.409416,-3.21242 0.04208,-0.79345 0.0926,-1.11131 0.201852,-1.27 0.08015,-0.11642 0.194272,-0.36407 0.253604,-0.55033 0.212285,-0.66645 0.453885,-1.025486 1.122032,-1.667436 l 0.678016,-0.65143 -0.03836,-0.4626 c -0.0211,-0.25443 -0.103459,-0.55184 -0.183021,-0.6609 -0.07956,-0.10907 -0.238643,-0.32776 -0.353514,-0.48599 -0.119545,-0.16466 -0.208856,-0.40463 -0.208856,-0.56116 0,-0.15041 -0.06441,-0.421 -0.143132,-0.60131 -0.217373,-0.49788 -0.214316,-3.13729 0.0046,-3.99186 0.106974,-0.417549 0.211579,-0.644796 0.324667,-0.705319 0.09177,-0.04911 0.221432,-0.21005 0.288148,-0.357644 0.06672,-0.147593 0.311665,-0.496951 0.54433,-0.776351 0.89109,-1.070082 0.963663,-1.397057 0.470013,-2.117636 -0.363015,-0.529891 -1.149981,-1.978243 -1.149981,-2.116453 0,-0.05687 -0.07653,-0.200706 -0.170077,-0.319626 -0.09354,-0.118919 -0.191393,-0.343133 -0.217444,-0.498251 -0.02605,-0.155119 -0.125937,-0.5398 -0.221964,-0.854848 -0.329663,-1.081564 -0.06253,-3.032543 0.516499,-3.772196 0.76575,-0.978171 1.583009,-1.701717 2.39951,-2.124366 0.42482,-0.219901 0.572142,-0.41725 0.572142,-0.766426 0,-0.218578 -0.0658,-0.409137 -0.196189,-0.568202 -0.107905,-0.131631 -0.248673,-0.372679 -0.312819,-0.535663 -0.06415,-0.162983 -0.183845,-0.391583 -0.265998,-0.508 -0.08215,-0.116416 -0.23666,-0.535516 -0.343348,-0.931333 -0.158679,-0.588704 -0.192414,-0.919964 -0.18538,-1.820333 0.0047,-0.605367 0.05581,-1.272117 0.113511,-1.481667 0.221096,-0.802941 0.913238,-1.951616 1.426111,-2.366764 1.272463,-1.030006 1.327463,-1.058053 2.573363,-1.312484 0.47443,-0.09689 0.69109,-0.649968 0.30225,-0.771597 -0.10478,-0.03277 -0.3048,-0.152563 -0.4445,-0.2662 -0.25024,-0.203551 -1.55234,-1.050351 -2.250575,-1.463622 -0.19669,-0.116416 -0.513726,-0.315748 -0.704522,-0.442959 -0.190797,-0.127211 -0.392636,-0.231986 -0.44853,-0.232833 -0.05589,-8.47e-4 -0.132094,-0.05576 -0.169333,-0.122033 -0.08883,-0.158088 -1.701063,-0.979798 -1.925689,-0.981471 -0.222904,-0.0017 -0.335834,-0.07918 -0.460656,-0.316204 -0.05518,-0.104775 -0.167778,-0.1905 -0.250225,-0.1905 -0.08245,0 -0.27901,-0.09525 -0.436804,-0.211666 -0.157794,-0.116417 -0.324121,-0.211667 -0.369616,-0.211667 -0.04549,0 -0.148856,-0.05985 -0.229693,-0.133011 -0.08084,-0.07316 -0.338763,-0.235082 -0.57317,-0.359834 -0.477219,-0.253977 -1.666995,-0.948375 -2.148872,-1.254163 -0.173627,-0.110179 -0.346332,-0.200325 -0.383788,-0.200325 -0.03746,0 -0.1621,-0.07335 -0.276982,-0.163 -0.583822,-0.45559 -1.032765,-0.775394 -1.526482,-1.087386 -0.498505,-0.31502 -0.888395,-0.611941 -1.252976,-0.95421 -0.07632,-0.07164 -0.324306,-0.262145 -0.551092,-0.423333 -0.226785,-0.161189 -0.531585,-0.412264 -0.677333,-0.557944 -0.145748,-0.145679 -0.325313,-0.298079 -0.399034,-0.338667 -0.31834,-0.17526 -1.364807,-1.445769 -1.734458,-2.105793 -0.500534,-0.893721 -0.713919,-1.328902 -0.714359,-1.456875 -2.54e-4,-0.08349 -0.0616,-0.266092 -0.136256,-0.405792 -0.288358,-0.539603 -0.111893,-2.751077 0.25271,-3.167004 0.06509,-0.07425 0.204474,-0.306446 0.309752,-0.515996 0.325383,-0.647656 0.586172,-0.917185 1.232838,-1.274153 0.34289,-0.189279 0.645644,-0.380077 0.672787,-0.423995 0.08639,-0.139785 3.048227,-0.09784 3.632137,0.05144 0.947304,0.24218 2.337825,0.725012 2.545554,0.883893 0.04657,0.03562 0.179916,0.09338 0.296333,0.128368 0.407872,0.122575 1.817707,0.811567 1.987989,0.971539 0.09457,0.08885 0.400342,0.28321 0.679483,0.431916 0.549573,0.292773 0.756672,0.438526 1.398352,0.984136 0.230369,0.195879 0.505175,0.401179 0.610681,0.456222 0.248927,0.129866 0.30443,0.17748 1.213337,1.040884 0.42213,0.400996 0.809758,0.729084 0.861394,0.729084 0.05164,0 0.182508,0.11952 0.290828,0.265599 0.10831,0.146079 0.33244,0.403254 0.49805,0.5715 0.16561,0.168246 0.60974,0.705951 0.98695,1.194901 0.37722,0.48895 0.76699,0.937821 0.86616,0.99749 0.0992,0.05967 0.21774,0.206909 0.26347,0.327198 0.0896,0.235709 0.10258,0.25355 1.08465,1.4934 0.3609,0.455632 0.80188,1.103332 0.97995,1.439333 0.17807,0.336002 0.44944,0.730373 0.60303,0.876381 0.17177,0.163286 0.31433,0.407703 0.37037,0.635 0.0501,0.203242 0.14634,0.464781 0.21385,0.581198 0.0675,0.116417 0.20536,0.374801 0.30635,0.574187 0.30627,0.604691 0.52143,0.625049 1.13611,0.10749 0.2691,-0.226583 1.30431,-0.591995 1.90859,-0.6737 0.89823,-0.121448 2.65583,0.141514 3.57085,0.53425 0.39716,0.170462 0.86016,0.173654 0.99857,0.0069 0.0585,-0.07052 0.21525,-0.439171 0.34826,-0.819219 0.13301,-0.380048 0.31839,-0.772478 0.41195,-0.872067 0.0936,-0.09959 0.17011,-0.237668 0.17011,-0.306841 0,-0.354319 1.52269,-2.01482 2.12975,-2.322507 0.15579,-0.07896 0.34507,-0.197628 0.42063,-0.263708 0.19117,-0.167196 0.92278,-0.438648 1.72529,-0.640137 0.89725,-0.225276 2.48542,-0.179782 3.43249,0.09833 1.39646,0.410073 1.75137,0.544364 2.19043,0.828813 0.45017,0.291651 0.70906,0.537098 1.93119,1.830917 0.45695,0.483756 0.66705,0.647311 0.83149,0.647311 0.21955,0 1.24767,-0.667932 1.37309,-0.892037 0.0355,-0.06341 0.27939,-0.265806 0.54201,-0.449775 1.23369,-0.8642 3.04507,-1.299058 4.31392,-1.035645 0.64325,0.133537 1.40623,0.518759 1.81071,0.914207 1.03305,1.009976 1.20717,1.268939 1.74273,2.591854 0.14761,0.364616 0.32212,0.683562 0.38781,0.708769 0.16341,0.06271 0.39936,-0.168354 0.60586,-0.593299 1.45196,-2.987836 1.60416,-3.279697 2.0261,-3.885304 0.15134,-0.217221 0.27517,-0.415916 0.27517,-0.441547 0,-0.05715 0.52147,-0.895998 0.85544,-1.376064 0.13487,-0.193879 0.24522,-0.378925 0.24522,-0.411212 0,-0.06916 0.59218,-0.854705 0.82843,-1.098947 0.0901,-0.09313 0.23191,-0.302683 0.31516,-0.465666 0.16278,-0.318703 0.20483,-0.371793 0.90529,-1.143 0.25376,-0.2794 0.55236,-0.639526 0.66354,-0.800279 0.24258,-0.350738 0.84604,-0.9961 1.98658,-2.12453 1.09543,-1.083795 1.14609,-1.128702 1.95233,-1.730526 1.12543,-0.840079 1.4885,-1.080039 2.15401,-1.423592 0.34925,-0.180293 0.69215,-0.396708 0.762,-0.480922 0.0699,-0.08421 0.22225,-0.179013 0.33866,-0.210663 0.19196,-0.05219 1.60556,-0.650126 2.52622,-1.068561 1.10234,-0.501008 3.402185,-0.733237 4.588775,-0.463354 0.34618,0.07874 0.80146,0.236991 1.01172,0.351673 0.56984,0.310809 1.44062,1.206906 1.44062,1.482513 0,0.05994 0.0997,0.213052 0.22158,0.340255 0.19527,0.203818 0.23364,0.345082 0.32312,1.189729 0.1846,1.74267 -0.11065,2.81236 -1.17612,4.260924 -0.56282,0.765172 -2.20786,2.497734 -2.37144,2.49759 -0.0481,-4.3e-5 -0.20177,0.11493 -0.34147,0.255494 -0.25605,0.25763 -1.26508,1.022689 -1.54977,1.175048 -0.0845,0.04521 -0.341815,0.276306 -0.571895,0.513561 -0.26294,0.271137 -0.53484,0.46277 -0.73199,0.515899 -0.1725,0.04649 -0.42565,0.178777 -0.56255,0.293968 -0.1369,0.115193 -0.28483,0.20944 -0.32873,0.20944 -0.0439,0 -0.28606,0.147374 -0.53812,0.327498 -0.25205,0.180125 -0.72717,0.462661 -1.05582,0.62786 -0.32865,0.165199 -0.64675,0.359655 -0.70689,0.432126 -0.0601,0.07247 -0.50849,0.327659 -0.99631,0.567084 -0.48782,0.239426 -0.90655,0.486388 -0.9305,0.548807 -0.0624,0.16262 -0.53774,0.425707 -1.30088,0.720006 -0.36419,0.140445 -0.79987,0.348807 -0.96818,0.463028 -0.16831,0.11422 -0.46645,0.294428 -0.66253,0.400462 -0.19608,0.106034 -0.4708,0.264667 -0.6105,0.352518 -0.1397,0.08785 -0.38735,0.241525 -0.55034,0.341496 -0.86289,0.529288 -1.55279,1.026348 -1.66748,1.201391 -0.16374,0.249897 -0.085,0.591527 0.15372,0.667308 0.34311,0.108896 1.67015,1.114826 1.94737,1.476154 0.11077,0.144368 0.30617,0.389942 0.43423,0.545719 0.12806,0.155777 0.23283,0.323666 0.23283,0.373086 0,0.04942 0.0735,0.141344 0.16336,0.204275 0.0899,0.06293 0.19114,0.227017 0.22509,0.364635 0.034,0.137617 0.14477,0.364514 0.24625,0.504214 0.10149,0.1397 0.31119,0.596156 0.46599,1.014348 0.24618,0.665023 0.28645,0.889562 0.32117,1.791019 0.0491,1.273763 -0.10125,2.019242 -0.76596,3.798633 -0.38312,1.025579 -1.27751,2.52487 -1.78918,2.999258 -0.13747,0.127461 -0.22139,0.295395 -0.22139,0.443074 0,0.199685 0.0665,0.271523 0.41489,0.448053 0.36107,0.182968 0.66481,0.408878 1.33087,0.989848 0.57801,0.50417 1.41673,1.662312 1.50941,2.084258 0.031,0.141322 0.1267,0.320541 0.21258,0.398264 0.0859,0.07772 0.18224,0.280381 0.21413,0.450353 0.0319,0.169973 0.11723,0.423622 0.18965,0.563667 0.17173,0.332103 0.25703,3.051077 0.12102,3.857558 -0.15945,0.945408 -0.65882,2.556871 -0.89829,2.898761 -0.072,0.102804 -0.13092,0.249501 -0.13092,0.325993 0,0.07649 -0.0762,0.235949 -0.16934,0.354349 -0.0931,0.118399 -0.16933,0.269296 -0.16933,0.335326 0,0.06603 -0.0953,0.209536 -0.21167,0.318904 -0.11641,0.109368 -0.21166,0.23297 -0.21166,0.27467 0,0.128577 -0.50201,0.81352 -0.84548,1.15357 -0.36757,0.36392 -0.57051,0.92365 -0.43004,1.18611 0.047,0.0879 0.27976,0.33441 0.51722,0.5479 0.2896,0.26037 0.46036,0.49362 0.51867,0.70846 0.0478,0.17616 0.17463,0.43659 0.28183,0.57874 0.2547,0.33773 0.89531,1.42768 1.09215,1.85822 0.0852,0.18626 0.28536,0.53166 0.44489,0.76754 0.27308,0.40378 0.50513,1.11872 1.01499,3.127116 0.0709,0.2794 0.17786,0.60325 0.23763,0.71967 0.2753,0.5362 0.20982,4.47046 -0.0857,5.14637 -0.0669,0.15292 -0.12154,0.37314 -0.12154,0.48938 0,0.11624 -0.0952,0.43765 -0.21166,0.71425 -0.11642,0.27659 -0.21167,0.55554 -0.21167,0.61989 0,0.17746 -1.06347,1.78796 -1.5754,2.38577 -0.48182,0.56266 -0.68585,0.89582 -0.91374,1.4921 -0.13128,0.34351 -0.31073,0.78114 -0.39878,0.97251 -0.20284,0.44087 -0.20336,0.87668 -0.002,1.32887 0.0872,0.19535 0.2358,0.56474 0.33031,0.82086 0.0945,0.25611 0.42325,0.95866 0.73053,1.5612 0.491352,1.24906 1.373707,2.46123 1.78517,3.56113 0.34908,1.0124 0.48681,1.91951 0.45168,2.97475 -0.178322,1.13407 -0.257957,2.61446 -0.96214,3.59094 -0.239437,0.58036 -0.587812,1.10144 -0.85548,1.63431 -0.16629,0.33293 -0.38632,0.71963 -0.48896,0.85933 -0.10264,0.1397 -0.33368,0.5207 -0.51343,0.84667 -0.33982,0.61625 -0.54613,0.93439 -0.86899,1.33999 -0.11152,0.14011 -0.1905,0.35625 -0.1905,0.52133 0,0.23199 0.0767,0.35093 0.43249,0.67083 0.363302,0.27189 0.719429,0.57486 0.95778,0.87568 0.81422,1.03341 1.08616,1.44265 1.61911,2.43661 0.520803,1.06794 0.622037,2.32983 0.63129,3.49051 0,1.01076 -0.0387,1.40204 -0.21898,2.21185 -0.22085,0.99226 -0.3117,1.23321 -0.82287,2.18249 -0.34887,0.64788 -0.58015,0.95276 -1.2357,1.629 -0.28405,0.293 -0.51645,0.5645 -0.51645,0.60334 0,0.0388 0.0633,0.13388 0.14062,0.21123 0.10872,0.10872 0.22514,0.12794 0.51322,0.0847 0.53345,-0.08 1.95769,-0.0624 2.94449,0.0363 1.44186,0.14427 1.33114,0.17651 1.86272,-0.5423 0.48401,-0.65448 1.05601,-1.12129 1.51327,-1.23499 0.14557,-0.0362 0.47423,-0.14225 0.73035,-0.23567 1.0619,-0.38737 5.129125,-0.37272 5.884325,0.0212 0.42651,0.22246 1.05612,0.16832 1.89351,-0.16281 0.41215,-0.16298 0.82148,-0.29801 0.9096,-0.30005 0.0881,-0.002 0.31262,-0.0614 0.49889,-0.13187 0.18626,-0.0705 0.54821,-0.16279 0.80433,-0.20514 0.25612,-0.0423 0.67522,-0.11358 0.93133,-0.15829 1.83576,-0.1838 3.78017,-0.12809 5.4766,0.28734 1.21858,0.22521 2.43539,0.69293 3.44992,1.38716 0.0991,0.16027 0.51798,0.10394 0.83697,-0.11253 0.16746,-0.11363 0.48709,-0.2971 0.71032,-0.40771 0.22323,-0.1106 0.52016,-0.26439 0.65986,-0.34177 0.1397,-0.0774 0.7112,-0.27772 1.27,-0.4452 1.19211,-0.51608 2.48538,-0.50286 3.42058,-0.50371 0.97421,-0.0644 1.82472,-0.0721 2.71064,0.29633 0.59198,0.24619 0.7675,0.36568 1.03717,0.7061 0.33817,0.367 0.28185,0.76729 0.4544,1.15888 0.13585,0.11275 1.41687,0.13777 2.32554,0.0454 0.74557,-0.0758 2.27738,-0.28829 2.74486,-0.38083 0.23658,-0.0468 0.92544,-0.1034 1.53081,-0.12574 0.98399,-0.0363 1.13881,-0.0223 1.4605,0.132 0.4085,0.19334 0.34783,0.49369 0.5388,0.82567 0.15761,0.16918 0.24095,0.18767 0.6985,0.15503 1.42471,-0.0853 2.68288,-0.6153 3.9062,-0.89556 0.46567,-0.10535 0.96097,-0.23134 1.10067,-0.27998 0.1397,-0.0486 0.4388,-0.12092 0.66468,-0.16062 0.22587,-0.0397 0.53067,-0.11149 0.67733,-0.15952 0.14665,-0.048 0.49525,-0.12208 0.77465,-0.16455 0.87399,-0.259 1.66815,-0.17869 2.33909,0.16766 0.34644,0.17514 0.56201,0.60327 0.64143,1.27392 0.0446,0.37665 0.0696,0.41086 0.39622,0.54162 0.46219,0.18505 1.23283,0.11543 2.84626,-0.25714 2.01282,-0.46481 2.47648,-0.55254 2.921,-0.55271 0.23284,0 0.65836,-0.0556 0.94562,-0.12333 0.28725,-0.0677 0.954,-0.13209 1.48167,-0.14301 0.93085,-0.0193 0.98403,-0.0103 1.78845,0.3017 1.06988,0.41495 1.47719,0.64683 2.00254,1.14005 0.30373,0.28516 0.42806,0.4665 0.42806,0.62435 0,0.26837 0.18576,0.47099 0.49275,0.53744 0.1248,0.027 0.77936,0.20129 1.45458,0.38727 0.67522,0.18598 1.4063,0.37081 1.62464,0.41075 0.21834,0.0399 0.60015,0.20257 0.84847,0.36142 0.24833,0.15885 0.69834,0.39748 1.00003,0.53029 0.30169,0.13281 0.68968,0.3658 0.86221,0.51777 0.17253,0.15197 0.46301,0.35247 0.64551,0.44558 0.34399,0.17549 0.77647,0.62125 0.77647,0.80031 0,0.0564 0.0742,0.2482 0.16495,0.42614 0.0907,0.17795 0.20779,0.60617 0.26016,0.95161 0.15681,1.03456 -0.0542,1.9313 -0.70605,3.00071 -0.1016,0.16667 -0.26092,0.42905 -0.35406,0.58306 -0.0931,0.15401 -0.29066,0.43674 -0.43894,0.62829 -0.44369,0.57313 -0.80667,1.25097 -0.85238,1.59172 -0.0377,0.2811 -0.004,0.36389 0.27768,0.6753 0.31099,0.34422 1.21391,1.09291 1.81798,1.50742 0.69666,0.47805 1.08637,0.88389 1.65181,1.7202 0.11913,0.17621 0.29151,0.39529 0.38306,0.48684 0.0915,0.0916 0.16646,0.22569 0.16646,0.2981 0,0.0724 0.0808,0.30894 0.17948,0.52563 0.15647,0.34346 0.17475,0.50845 0.14253,1.28652 -0.0355,0.85767 -0.0515,0.92044 -0.40885,1.60694 -0.40786,0.78345 -1.06961,1.58254 -1.88117,2.27157 -0.82895,0.70379 -0.89252,0.9178 -0.47117,1.58602 0.46852,0.74304 0.70678,1.24972 0.97543,2.07434 0.43382,1.33165 0.64409,2.63152 0.45608,2.81953 -0.0511,0.0511 -0.093,0.17218 -0.093,0.26896 0,0.0968 -0.12761,0.44157 -0.28357,0.76623 -0.3828,0.79681 -1.22384,1.59192 -2.049,1.93708 -0.65586,0.27434 -0.96943,0.51297 -0.96943,0.73775 0,0.19623 0.54758,1.13624 0.88181,1.51378 0.24889,0.28113 0.47966,0.70573 0.89285,1.64276 0.19344,0.43868 0.3403,1.43425 0.34137,2.31413 8.4e-4,0.63538 -0.31437,1.791 -0.69879,2.56244 -0.46426,0.93168 -1.31613,1.60867 -2.0242,1.60867 -0.13983,0 -0.4891,0.0547 -0.77614,0.12158 -0.28704,0.0669 -0.941,0.18414 -1.45323,0.26059 -0.51223,0.0764 -1.01517,0.19284 -1.11763,0.25862 -0.35016,0.22482 -0.37969,0.86617 -0.12253,2.66121 0.16518,1.1531 0.18399,2.8773 0.0356,3.25967 -0.0723,0.18626 -0.1364,0.47201 -0.14241,0.635 -0.0129,0.3487 -0.20125,0.7234 -0.5076,1.00959 -0.12084,0.11289 -0.21971,0.24269 -0.21971,0.28843 0,0.0991 -1.16984,1.24198 -1.27131,1.24198 -0.0387,0 -0.18203,0.094 -0.31851,0.20879 -0.46259,0.38924 -1.87541,0.80791 -3.91352,1.1597 -0.86132,0.14867 -1.3704,0.18096 -2.73471,0.17346 -0.92201,-0.005 -1.74857,-0.0321 -1.83679,-0.0601 -0.11035,-0.035 -0.19992,0.01 -0.28703,0.14379 -0.10412,0.16009 -0.13593,0.75927 -0.17891,3.36971 -0.0288,1.74625 -0.0835,4.6609 -0.12175,6.477 0.046,13.80609 -0.0993,25.65337 0.57835,38.94667 0.0501,0.93133 0.0917,2.54228 0.0923,3.57988 0.001,2.14464 0.0321,2.28656 0.59357,2.73771 0.19604,0.15753 0.41501,0.40071 0.48659,0.54041 0.0716,0.1397 0.21907,0.36052 0.32772,0.49071 0.2794,0.33479 0.56146,1.29383 0.49548,1.6847 -0.0397,0.23539 -0.14769,0.39049 -0.43646,0.62711 -0.63071,0.51682 -1.19176,0.63185 -3.49773,0.71714 -1.09432,0.0405 -2.45661,0.11267 -3.02732,0.16044 -1.01445,0.0849 -1.38501,0.0619 -2.72343,-0.16905 -0.8626,-0.14886 -1.36125,-0.67186 -1.36125,-1.42771 0,-0.77523 0.43453,-1.6168 1.25583,-2.43218 0.22888,-0.22724 0.45906,-0.49638 0.5115,-0.5981 0.14294,-0.27728 0.1159,-1.52616 -0.0456,-2.10444 -0.0775,-0.27755 -0.14747,-0.75227 -0.1555,-1.05496 -0.0239,-0.90114 -0.38632,-4.18448 -0.47149,-4.27143 -0.0433,-0.0442 -0.0808,-0.27284 -0.0833,-0.508 -0.002,-0.23516 -0.0603,-0.73237 -0.12846,-1.1049 -0.0682,-0.37253 -0.16022,-1.03807 -0.20451,-1.47898 -0.0443,-0.4409 -0.10119,-0.8981 -0.12644,-1.016 -0.0252,-0.11789 -0.0481,-0.3858 -0.0508,-0.59535 -0.92913,-11.2966 -3.34224,-23.74183 -3.67525,-35.51767 -0.0237,-0.88477 -0.0937,-2.02416 -0.15547,-2.53199 -0.12615,-1.03646 -0.17097,-1.10398 -1.0267,-1.54684 -0.54121,-0.28009 -0.78057,-0.45084 -1.64083,-1.1705 -0.38965,-0.32597 -0.79039,-0.63974 -0.89055,-0.69726 -0.2633,-0.15122 -0.68498,-0.13059 -0.83977,0.0411 -0.14445,0.16022 -0.15715,0.30229 -0.30848,3.45017 -0.48288,11.54268 -1.12005,22.44227 -1.23665,33.77652 -0.0277,2.79099 -0.0673,5.10203 -0.0881,5.13563 -0.0208,0.0336 -0.043,2.64592 -0.0493,5.80515 -0.0129,6.43922 -0.0416,6.12401 0.60422,6.64296 0.19604,0.15752 0.41501,0.4007 0.48659,0.5404 0.0716,0.1397 0.21907,0.36052 0.32772,0.49071 0.2794,0.33479 0.56146,1.29384 0.49548,1.6847 -0.0397,0.23539 -0.14769,0.39049 -0.43646,0.62712 -0.63071,0.51681 -1.19176,0.63185 -3.49773,0.71713 -1.09432,0.0405 -2.45661,0.11268 -3.02732,0.16045 -1.01445,0.0849 -1.38501,0.0619 -2.72343,-0.16906 -0.8626,-0.14886 -1.36125,-0.67185 -1.36125,-1.4277 0,-0.77524 0.43453,-1.61681 1.25583,-2.43218 0.22888,-0.22725 0.45906,-0.49639 0.5115,-0.5981 -1.34913,-16.50439 -1.8716,-34.84229 -3.11847,-49.5144 -0.0442,-0.46567 -0.0821,-1.36715 -0.0844,-2.0033 -0.004,-1.25316 -0.14165,-1.83291 -0.57282,-2.42053 -0.30808,-0.41987 -0.5434,-0.37248 -0.9769,0.19675 -0.77681,1.02003 -1.62407,2.04157 -1.95712,2.3597 -0.54062,0.51641 -1.58601,1.31705 -1.71966,1.31705 -0.066,0 -0.22794,0.0558 -0.35985,0.12402 -0.43614,0.22553 -2.5724,0.49033 -3.60409,0.44674 -0.96056,-0.0406 -2.31579,-0.25312 -2.83634,-0.44482 -0.73663,-0.27127 -2.35669,-1.00502 -2.62922,-1.19082 -0.16548,-0.11282 -0.39697,-0.20512 -0.5144,-0.20512 -0.12077,0 -0.3027,-0.0955 -0.41879,-0.21991 -0.11289,-0.12094 -0.35765,-0.29713 -0.54392,-0.39153 -0.18627,-0.0944 -0.52917,-0.32977 -0.762,-0.52306 -1.07085,-0.88899 -1.48158,-1.00693 -1.79917,-0.51664 -0.10477,0.16175 -0.1905,0.32708 -0.1905,0.3674 0,0.19386 -0.91581,1.41367 -1.40474,1.87104 -0.61761,0.57774 -1.27402,0.94299 -2.0614,1.14702 -0.69385,0.1798 -2.355205,0.1433 -3.137855,-0.0689 -0.72063,-0.19541 -1.64827,-0.65928 -2.15376,-1.07699 -0.22257,-0.18392 -0.4329,-0.3344 -0.46739,-0.3344 -0.0345,0 -0.38134,-0.3048 -0.77076,-0.67734 -0.7004,-0.67002 -0.71281,-0.67733 -1.15073,-0.67733 -0.24348,0 -0.46562,0.0371 -0.49365,0.0824 -0.12598,0.20385 -1.72291,0.87789 -2.82044,1.19046 -0.47859,0.1363 -0.63443,0.21984 -0.69185,0.37088 -0.0408,0.10723 -0.0769,3.21976 -0.0803,6.91676 -0.003,3.69698 -0.047,7.76954 -0.097,9.05013 -0.05,1.28058 -0.0674,3.24273 -0.0387,4.36033 0.0287,1.1176 0.0834,3.84175 0.12152,6.05367 0.321317,4.85595 0.09368,8.4534 0.34898,13.1719 0.0483,0.83477 0.12476,2.81316 0.16982,4.39643 0.0902,3.17023 0.0954,3.25967 0.1868,3.25967 0.0349,0 0.0635,0.66797 0.0635,1.48438 0,1.70443 0.0494,1.89924 0.5924,2.33555 0.19604,0.15752 0.415,0.4007 0.48659,0.5404 0.0716,0.1397 0.21906,0.36052 0.32772,0.49071 0.2794,0.33479 0.56146,1.29383 0.49548,1.6847 -0.0397,0.23539 -0.14769,0.39049 -0.43646,0.62712 -0.6307,0.51681 -1.19176,0.63185 -3.49773,0.71713 -1.09432,0.0405 -2.45661,0.11268 -3.02732,0.16044 -1.01445,0.0849 -1.38501,0.0619 -2.72342,-0.16905 -0.86259,-0.14886 -1.36124,-0.67185 -1.36124,-1.42771 0,-0.77523 0.43453,-1.6168 1.25583,-2.43217 0.22889,-0.22725 0.45906,-0.49639 0.5115,-0.59811 0.14544,-0.28212 0.11607,-1.52764 -0.0496,-2.10444 -0.0797,-0.27754 -0.13953,-0.68559 -0.13289,-0.90679 0.008,-0.28245 -0.0211,-0.40216 -0.0995,-0.40216 -0.0784,0 -0.139,-0.24548 -0.20376,-0.8255 -0.10579,-0.9474 -0.14434,-1.29178 -0.26299,-2.3495 -0.047,-0.4191 -0.10358,-0.80927 -0.12572,-0.86704 -0.0221,-0.0578 -0.0816,-0.51195 -0.13222,-1.00927 -0.0506,-0.49732 -0.14661,-1.13585 -0.21338,-1.41895 -0.0668,-0.28311 -0.12196,-0.72862 -0.12265,-0.99002 -6.8e-4,-0.2614 -0.0429,-0.6805 -0.0937,-0.93133 -0.0509,-0.25084 -0.10598,-0.68466 -0.12252,-0.96406 -0.0684,-1.15601 -0.76527,-6.94331 -0.85317,-7.08554 -0.0217,-0.0352 -0.0775,-0.51275 -0.12392,-1.06123 -0.0464,-0.54848 -0.1173,-1.30203 -0.15757,-1.67456 -0.0403,-0.37254 -0.11569,-1.08592 -0.16763,-1.58529 -0.0519,-0.49938 -0.15019,-1.22328 -0.21835,-1.60867 -0.0682,-0.38539 -0.12485,-0.96741 -0.12597,-1.29338 -0.001,-0.32596 -0.038,-0.72601 -0.0819,-0.889 -0.0439,-0.16298 -0.10024,-0.60113 -0.12512,-0.97366 -0.0477,-0.7147 -0.18155,-1.70878 -0.30994,-2.30233 -0.0422,-0.19525 -0.0775,-0.72865 -0.0783,-1.18533 -8.4e-4,-0.45669 -0.0397,-1.17324 -0.0865,-1.59234 -0.0467,-0.4191 -0.12095,-1.2573 -0.16494,-1.86267 -0.044,-0.60537 -0.11846,-1.25307 -0.1655,-1.43933 -0.047,-0.18627 -0.0892,-0.81492 -0.0937,-1.397 -0.004,-0.58209 -0.0452,-1.26789 -0.0904,-1.524 -0.085,-0.48165 -0.21711,-1.76157 -0.4456,-4.318 -0.0728,-0.81492 -0.17148,-1.90077 -0.2192,-2.413 -0.0477,-0.51224 -0.11037,-1.50284 -0.13921,-2.20134 -0.0552,-1.337 -0.14177,-1.651 -0.45511,-1.651 -0.20042,0 -0.91115,0.4401 -1.06466,0.65926 -0.0612,0.0874 -0.38989,0.29821 -0.73033,0.4684 -0.66407,0.33196 -1.29115,0.46305 -2.48369,0.51924 -0.39217,0.0185 -0.75244,0.058 -0.8006,0.0877 -0.0482,0.0298 -0.14933,0.17354 -0.22481,0.3195 -0.11678,0.22584 -0.1309,0.49309 -0.0948,1.7938 0.0234,0.84063 0.0854,1.63567 0.13783,1.76676 0.0625,0.15623 0.096,1.04594 0.0972,2.58234 0.001,1.28919 0.0637,3.58223 0.1394,5.09565 0.600996,10.66694 0.98266,19.95877 1.72645,30.43767 0.0441,0.60536 0.12266,1.71026 0.17467,2.45533 0.052,0.74507 0.12812,1.36737 0.16913,1.38289 0.041,0.0155 0.0746,0.69302 0.0746,1.50556 0,1.69672 0.0498,1.8925 0.5924,2.32848 0.19604,0.15752 0.415,0.4007 0.48659,0.5404 0.0716,0.1397 0.21906,0.36052 0.32771,0.49071 0.27941,0.33479 0.56147,1.29384 0.49549,1.6847 -0.0397,0.23539 -0.14769,0.39049 -0.43646,0.62712 -0.6307,0.51681 -1.19176,0.63185 -3.49773,0.71713 -1.09432,0.0405 -2.45847,0.11284 -3.03145,0.1608 -0.57298,0.048 -1.08733,0.0817 -1.143,0.0749 -0.0557,-0.007 -0.32982,-0.0458 -0.60922,-0.0867 z m 1.50837,-150.39765 c 1.60214,-0.12694 2.61101,-0.28515 3.19063,-0.50036 0.16299,-0.0605 0.73449,-0.21573 1.27,-0.34492 1.6316,-0.39362 2.69444,-0.96898 4.13046,-2.23596 1.57053,-1.38566 2.21954,-2.7273 2.21954,-4.58824 0,-1.13029 -0.20203,-1.87095 -0.77441,-2.83907 -0.35775,-0.605086 -1.45353,-1.735686 -2.06192,-2.127416 -1.10355,-0.71057 -1.81443,-1.11616 -2.05825,-1.17434 -0.12526,-0.0299 -0.2798,-0.0955 -0.34342,-0.14586 -0.12994,-0.10282 -0.32343,-0.17781 -1.69228,-0.6559 -0.5399,-0.18856 -1.03167,-0.3134 -1.12184,-0.28478 -3.195177,-0.358559 -5.802328,-0.565696 -8.62542,0.10366 -0.0927,0.0579 -0.2451,0.10522 -0.33874,0.10522 -0.14666,0 -1.28454,0.37274 -2.41437,0.79089 -0.36681,0.13575 -1.36069,0.67898 -1.56634,0.85611 -0.0699,0.0602 -0.26714,0.17445 -0.43842,0.25396 -0.17128,0.0795 -0.66868,0.49395 -1.10534,0.92097 -0.67896,0.66398 -0.84728,0.88674 -1.16245,1.538396 -0.20269,0.4191 -0.44809,0.9144 -0.54532,1.10067 -0.15432,0.29561 -0.17583,0.4786 -0.16918,1.43933 0.008,1.16519 0.0317,1.25933 0.64761,2.58233 0.81756,1.75608 2.97608,3.48163 5.32788,4.25917 2.2159,0.73261 2.78301,0.83563 5.85392,1.06343 0.0845,0.006 0.88464,-0.0465 1.778,-0.11729 z M 47.877695,65.602562 c 0.16893,-0.168931 0.17265,-0.660016 0.006,-0.798285 -0.0699,-0.05797 -0.127,-0.171572 -0.127,-0.252449 0,-0.08088 -0.12219,-0.371486 -0.27154,-0.645799 -0.14935,-0.274314 -0.38748,-0.713348 -0.52917,-0.975631 -0.63945,-1.183677 -0.94382,-1.661943 -1.24556,-1.957194 -0.17841,-0.174573 -0.32439,-0.394158 -0.32439,-0.487967 0,-0.174971 -0.0865,-0.301242 -1.1941,-1.743196 -0.758029,-0.986861 -2.331416,-2.721943 -2.523872,-2.783252 -0.0739,-0.02354 -0.267712,-0.21341 -0.430695,-0.421933 -0.162984,-0.208523 -0.363771,-0.402218 -0.446194,-0.430433 -0.08242,-0.02821 -0.320878,-0.181839 -0.5299,-0.341389 -0.20902,-0.15955 -0.413143,-0.29009 -0.453606,-0.29009 -0.04046,0 -0.122824,-0.05935 -0.183027,-0.131893 -0.115383,-0.139027 -0.275277,-0.215309 -1.435273,-0.684726 -0.395817,-0.160175 -0.833967,-0.342315 -0.973667,-0.404754 -0.344882,-0.154146 -1.317672,-0.226133 -2.001915,-0.148142 -0.820442,0.09351 -1.149917,0.349959 -1.552888,1.208675 -0.30122,0.64189 -0.316545,0.714814 -0.279528,1.330147 0.03147,0.523122 0.0924,0.750831 0.310152,1.159026 0.440195,0.825197 0.716774,1.157691 1.679788,2.019389 1.179361,1.055282 2.194057,1.750835 3.757655,2.575792 2.356683,1.243392 4.142447,2.26444 4.65684,2.662649 0.16377,0.126774 0.59702,0.384433 0.96278,0.572577 0.36576,0.188142 0.70974,0.379188 0.76439,0.424544 0.0547,0.04536 0.41992,0.21408 0.81171,0.374942 0.78145,0.320848 1.34053,0.38183 1.55297,0.169392 z m 37.53157,-3.30173 c 0.10314,-0.06667 0.22691,-0.121222 0.27504,-0.121222 0.15453,0 2.06841,-1.103206 2.33144,-1.343904 0.34357,-0.31439 0.83673,-0.615128 1.397,-0.851914 0.25612,-0.108242 0.57337,-0.287114 0.705,-0.397493 0.13163,-0.110379 0.27178,-0.200689 0.31145,-0.200689 0.0397,0 0.12247,-0.04918 0.184,-0.109291 0.12068,-0.117879 0.23099,-0.177556 1.87579,-1.014746 0.59761,-0.304181 1.16911,-0.62641 1.27,-0.716064 0.10088,-0.08966 0.73588,-0.528776 1.4111,-0.975825 1.52078,-1.006884 2.09065,-1.612784 2.74707,-2.920734 0.27422,-0.546407 0.29888,-0.651898 0.25615,-1.095809 -0.14234,-1.478799 -0.2621,-1.708938 -1.15086,-2.211643 -0.42407,-0.23986 -0.54872,-0.269112 -1.143,-0.268216 -0.76858,0.0012 -1.22799,0.114182 -2.23336,0.549444 -0.39582,0.171364 -0.79587,0.333223 -0.889,0.359687 -0.0931,0.02646 -0.2602,0.11826 -0.37126,0.20399 -0.11105,0.08573 -0.26345,0.156456 -0.33866,0.157169 -0.13847,0.0013 -0.50793,0.242794 -1.41498,0.924837 -0.62583,0.470585 -2.22094,2.073961 -2.4471,2.45978 -0.30493,0.520191 -0.64975,0.998021 -1.016,1.407908 -0.63609,0.711866 -1.13831,1.403294 -1.71457,2.360513 -0.88165,1.464486 -0.80122,1.317148 -1.29062,2.364104 -0.52044,1.113339 -0.53824,1.419835 -0.0996,1.714446 l 0.28191,0.18933 0.43775,-0.171217 c 0.24077,-0.09417 0.52214,-0.225768 0.62528,-0.292441 z"
         id="path179"
         sodipodi:nodetypes="csssscssscccssssscssscsscssssssssssscscssssssssssssssssscssssssssssssssssssscsssssssssssssscsssscsssssscssssssssssssssssssssscssssssssscssssssssssssssscsssssssssssssssssssssssssssscscsssssssssssssscssssssssssscssssssssssssssssscsssssscscsssccsscssssscsssssscscsscssscscscscsssscscccccsssscccccssssccsscsscsccccssscccccsssccccsssccssscssssssssssssscssssscsscscsssssssssssscssssssssssscscscscccsssssssssssssscssscccssssccscsssssssssscccssssssssssssssssssssscsscssccssssssssssssssscssssssscsssssscsssscsscsssssssscscssccssssssssssccccssssssscsccsssssssccscccccsssssssssssssssssssssscsccssssssssssssscsssssssssscsss"
         inkscape:label="Body"
         transform="translate(-27.748699,-44.661726)" /><path
         style="fill:#000000;stroke-width:0.0846667"
         d="m 87.677833,104.82121 c -0.431204,-0.10404 -0.792095,-0.2374 -0.859901,-0.31781 -0.06425,-0.0762 -0.420675,-0.23507 -0.792012,-0.353 -1.250281,-0.3971 -2.68005,-1.30951 -3.823558,-2.44003 -0.165765,-0.16388 -0.402765,-0.37498 -0.526688,-0.46911 -0.353748,-0.26873 -1.157429,-1.12201 -1.191068,-1.264587 -0.01673,-0.07089 -0.24483,-0.332042 -0.506883,-0.580329 -0.604203,-0.572449 -0.579885,-0.542646 -0.864086,-1.058894 -0.241007,-0.437785 -0.310791,-0.537486 -0.948948,-1.355634 -0.19043,-0.24415 -0.471678,-0.722247 -0.624995,-1.062436 -0.153308,-0.340187 -0.423503,-0.857404 -0.60044,-1.14937 -0.176936,-0.291967 -0.378637,-0.711581 -0.448235,-0.932477 -0.06957,-0.220892 -0.15722,-0.463459 -0.194712,-0.539028 -0.436514,-0.879794 -1.27045,-4.33282 -1.311293,-5.429595 -0.02753,-0.739222 -0.14175,-1.906326 -0.199195,-2.035347 -0.216064,-0.485272 -2.038827,-1.066328 -4.239423,-1.351434 -0.989661,-0.128255 -2.872688,-0.208105 -3.292443,-0.13968 -0.237765,0.03876 -0.378617,0.310862 -0.814109,1.572723 -0.410187,1.188535 -0.975136,2.464208 -1.277306,2.884195 -0.07701,0.107046 -0.208358,0.339161 -0.291871,0.515812 -0.08351,0.176654 -0.232704,0.408695 -0.331535,0.515649 -0.09883,0.106955 -0.221955,0.300098 -0.273611,0.429206 -0.151664,0.379059 -1.305306,1.978594 -1.788831,2.480226 -0.24502,0.254195 -0.668115,0.724329 -0.940212,1.044744 -0.275659,0.32461 -0.769386,0.768451 -1.115015,1.002352 -0.341163,0.230879 -0.624457,0.450341 -0.629545,0.487694 -0.0189,0.138879 -0.761723,0.751191 -1.39473,1.14971 -0.359626,0.226409 -0.783715,0.503002 -0.942419,0.614651 -0.291691,0.205208 -0.622746,0.392916 -1.703429,0.965846 -1.452813,0.770216 -2.680211,1.171518 -4.071299,1.331137 -0.286403,0.03284 -0.855127,0.11567 -1.263822,0.184008 -0.726443,0.121473 -0.79474,0.117254 -3.050327,-0.188398 -2.055528,-0.278541 -2.341591,-0.33436 -2.622085,-0.511338 -0.173165,-0.109242 -0.590489,-0.291955 -0.927394,-0.405968 -0.780412,-0.264087 -1.75631,-0.79282 -3.086621,-1.672299 -0.35695,-0.235981 -0.665046,-0.465097 -0.684657,-0.509146 -0.01961,-0.04405 -0.217859,-0.205051 -0.440546,-0.357782 -0.72311,-0.495947 -1.604549,-1.376524 -2.356595,-2.354287 -0.910727,-1.184071 -1.751394,-2.576948 -1.995048,-3.305539 -0.05782,-0.17291 -0.224453,-0.574711 -0.370288,-0.892894 -0.145834,-0.318181 -0.258755,-0.62573 -0.250935,-0.683441 0.0078,-0.05771 -0.05964,-0.303294 -0.149926,-0.54574 -0.226248,-0.607591 -0.359977,-1.276858 -0.428134,-2.142673 -0.03178,-0.403742 -0.09957,-0.888891 -0.150643,-1.078112 -0.06076,-0.225119 -0.05996,-0.712297 0.0023,-1.409452 0.05235,-0.58598 0.07627,-1.150343 0.05317,-1.25414 C 33.9324,82.092002 33.770982,81.943288 33.532613,81.816837 32.776907,81.415948 32.7816,81.435881 33.04155,79.7311 c 0.270788,-1.775862 0.286745,-1.800382 1.161979,-1.78522 0.622989,0.01079 0.820016,-0.121509 0.987181,-0.662871 0.138167,-0.447462 0.556639,-0.989112 1.654556,-2.141589 0.109567,-0.115016 0.334252,-0.359883 0.499293,-0.54415 0.430523,-0.480678 2.292227,-1.869952 2.694957,-2.01108 0.187508,-0.06571 0.398263,-0.172182 0.468344,-0.236608 0.07008,-0.06442 0.163533,-0.112246 0.207671,-0.106265 0.04414,0.006 0.319123,-0.142842 0.611077,-0.330717 0.504034,-0.324353 1.588333,-0.738291 1.843396,-0.703727 0.06525,0.0088 0.303294,-0.05217 0.528981,-0.135573 0.225688,-0.08341 0.585082,-0.154124 0.798654,-0.157149 0.213573,-0.003 0.523076,-0.07929 0.687785,-0.169468 0.171389,-0.09384 0.416237,-0.148146 0.572488,-0.126973 0.15016,0.02035 0.600515,-0.02436 1.000789,-0.09934 l 0.72777,-0.136342 3.563834,0.49728 c 2.743979,0.382883 3.781617,0.558206 4.510514,0.762107 1.110315,0.310604 4.919765,1.004769 5.836711,1.063574 1.079986,0.06926 6.492565,0.971539 7.603328,1.267478 0.779361,0.207642 2.165119,0.439487 5.681154,0.950489 4.445613,0.646104 5.128134,0.721103 8.671246,0.95291 0.721975,0.04724 2.940406,0.274456 4.929844,0.504936 3.373621,0.390844 4.366073,0.465514 5.66673,0.426366 0.774809,-0.02332 2.218374,0.199036 2.594503,0.399642 0.175303,0.0935 0.699272,0.275475 1.164372,0.404401 0.525898,0.145779 0.939615,0.311172 1.094172,0.437424 0.136694,0.111656 0.433694,0.255239 0.660002,0.319072 0.226302,0.06384 0.572229,0.206506 0.768719,0.317047 0.19648,0.110546 0.51952,0.280314 0.71784,0.37727 0.54146,0.264704 1.35708,0.758543 1.57591,0.954177 0.10656,0.09526 0.33202,0.287698 0.50103,0.427639 1.78893,1.481269 2.96958,2.892299 3.36878,4.026162 0.0616,0.174827 0.20335,0.547062 0.31511,0.827199 0.43046,1.078977 0.65635,1.753827 0.67772,2.024605 0.0315,0.399234 0.18386,0.557965 0.58882,0.613392 0.59746,0.08181 0.95061,0.27612 0.98647,0.542871 0.0174,0.129476 -0.058,0.870087 -0.16752,1.645791 -0.22704,1.608454 -0.23396,1.620835 -0.90949,1.653392 -0.22964,0.01106 -0.46876,0.07256 -0.53139,0.136638 -0.0627,0.06407 -0.18502,0.460534 -0.272,0.881005 -0.087,0.420475 -0.21225,0.910954 -0.27849,1.089947 -0.0662,0.178992 -0.23801,0.713215 -0.38179,1.18715 -0.14385,0.473927 -0.3743,1.057869 -0.51226,1.297633 -0.13795,0.239765 -0.29289,0.545578 -0.34432,0.679585 -0.0515,0.134004 -0.1715,0.309979 -0.26682,0.391046 -0.0953,0.08106 -0.21543,0.257034 -0.26691,0.391034 -0.0515,0.134004 -0.15799,0.298166 -0.23667,0.364813 -0.0787,0.06665 -0.33476,0.397205 -0.56905,0.734573 -0.55989,0.806176 -0.99484,1.293694 -1.56313,1.752054 -0.25591,0.20641 -0.57948,0.50861 -0.71903,0.67154 -0.3086,0.36026 -1.68072,1.39393 -2.378867,1.79207 -0.280108,0.15973 -0.774553,0.40375 -1.098769,0.54226 -0.324216,0.13851 -0.687493,0.29912 -0.807268,0.35692 -0.119785,0.0578 -0.284502,0.13448 -0.366066,0.17042 -0.08157,0.0359 -0.295856,0.13186 -0.476225,0.21315 -0.18037,0.0813 -0.385729,0.13997 -0.456354,0.1304 -0.07065,-0.01 -0.351137,0.0638 -0.623369,0.16304 -0.272241,0.0992 -0.69997,0.19616 -0.95052,0.21538 -0.250551,0.0192 -0.505069,0.0659 -0.565589,0.10364 -0.06053,0.0378 -0.406122,0.0662 -0.768003,0.0631 -0.361868,-0.003 -0.845334,0.0494 -1.074358,0.11675 -0.689886,0.20277 -3.019736,0.003 -4.701168,-0.40213 z M 75.115153,83.093631 c 0.06103,-0.11227 0.140487,-0.421611 0.176508,-0.687431 0.04058,-0.299505 0.176202,-0.700818 0.356588,-1.055239 0.16011,-0.314559 0.302331,-0.654768 0.316052,-0.756018 0.03688,-0.27215 0.751263,-1.305387 1.260846,-1.823614 0.244655,-0.248801 0.649146,-0.591645 0.898867,-0.761878 0.492803,-0.335938 0.567345,-0.480385 0.334727,-0.648602 -0.208475,-0.150753 -12.606644,-1.830811 -12.847714,-1.740975 -0.09573,0.03568 -0.177346,0.0919 -0.18137,0.124944 -0.0041,0.03305 0.218386,0.37735 0.494241,0.76512 0.275856,0.387771 0.514431,0.785358 0.530169,0.883527 0.01574,0.09817 0.09618,0.30299 0.178766,0.455157 0.190819,0.351596 0.517086,1.365226 0.547403,1.700645 0.01274,0.141 0.0622,0.506004 0.109899,0.81112 0.0477,0.305115 0.06481,0.716492 0.03802,0.914172 -0.03042,0.224509 -2.62e-4,0.439146 0.08035,0.571827 l 0.129055,0.212409 1.305662,0.07636 c 0.718114,0.042 1.796241,0.144601 2.395839,0.228021 1.050732,0.146218 3.301748,0.693215 3.403732,0.827178 0.113106,0.148557 0.367318,0.09651 0.472386,-0.09672 z"
         id="path193"
         inkscape:label="Sunglasses"
         transform="translate(-27.748699,-44.661726)" /><path
         style="fill:#000000;stroke-width:0.0536066"
         d="m 64.244026,106.98807 c -0.385988,-0.0864 -0.851953,-0.27433 -1.143582,-0.46125 -0.336424,-0.21563 -0.920277,-0.83447 -0.920277,-0.97544 0,-0.0402 -0.06306,-0.14819 -0.14014,-0.23979 -0.07708,-0.0916 -0.18369,-0.30453 -0.236919,-0.47317 -0.05324,-0.16865 -0.139141,-0.40312 -0.190914,-0.52106 -0.06866,-0.15641 -0.09522,-0.36422 -0.09812,-0.76814 l -0.0038,-0.55372 0.175066,-0.15658 c 0.146757,-0.13124 0.22095,-0.15656 0.458811,-0.15656 0.15606,0 0.32694,0.0315 0.379732,0.0702 0.101994,0.0746 0.185595,0.40691 0.191369,0.76073 0.0044,0.28158 0.346169,1.25005 0.498352,1.41299 0.497302,0.53241 0.59,0.5984 1.028469,0.73214 l 0.43688,0.13326 0.592204,-0.15158 c 0.745096,-0.19072 0.970573,-0.36009 1.280252,-0.9617 l 0.212314,-0.41245 0.01602,-1.8314 0.01602,-1.8314 -0.230422,-0.18625 c -0.286855,-0.23187 -0.389229,-0.28348 -0.659273,-0.33231 -0.218278,-0.0394 -0.776994,-0.323819 -1.07719,-0.548229 -0.09123,-0.0683 -0.195466,-0.12399 -0.231625,-0.12399 -0.06699,0 -0.969466,-0.90444 -0.969466,-0.97157 0,-0.0203 -0.08443,-0.13788 -0.187621,-0.26139 -0.103197,-0.12352 -0.187628,-0.25488 -0.187628,-0.29192 0,-0.037 -0.06262,-0.18518 -0.139216,-0.32919 -0.196207,-0.36901 -0.197448,-0.84865 -0.0031,-1.25915 0.170247,-0.35987 0.367645,-0.48576 0.975811,-0.62233 0.381206,-0.0856 0.741835,-0.0958 3.401582,-0.0965 3.085071,-6.3e-4 3.46384,0.021 4.018821,0.232 0.199587,0.0759 0.270627,0.14454 0.425781,0.41159 0.164688,0.28347 0.186132,0.36394 0.185411,0.69579 -6.34e-4,0.33529 -0.02323,0.41591 -0.211352,0.75711 -0.452214,0.8202 -0.964951,1.43673 -1.50202,1.80604 -0.434265,0.29862 -0.992792,0.558599 -1.336649,0.622169 -0.445331,0.0823 -0.85762,0.36245 -0.940473,0.63897 -0.09782,0.32652 -0.03736,3.07684 0.07384,3.35901 0.04647,0.11793 0.09878,0.29886 0.116235,0.40205 0.03754,0.22192 0.493102,0.81605 0.741658,0.96721 0.262662,0.15974 0.906391,0.28435 1.261101,0.24411 0.621721,-0.0705 0.857829,-0.16553 1.12624,-0.4533 0.452555,-0.48518 0.583238,-0.68647 0.621398,-0.95714 0.08183,-0.58043 0.247827,-1.36208 0.310636,-1.46264 0.172957,-0.27696 0.771841,-0.24397 0.924328,0.0509 0.14691,0.2841 0.155831,0.68489 0.02931,1.31685 -0.08292,0.41414 -0.164187,0.66179 -0.273938,0.83476 -0.08582,0.13525 -0.156045,0.2647 -0.156045,0.28765 0,0.0776 -0.395428,0.59056 -0.667561,0.86588 -0.430365,0.43539 -0.764079,0.58911 -1.676517,0.77232 -0.382182,0.0768 -0.673634,0.0489 -1.388105,-0.13235 -0.533016,-0.13525 -0.846723,-0.32782 -1.304604,-0.80082 -0.131441,-0.13578 -0.283411,-0.24688 -0.337703,-0.24688 -0.153519,0 -0.384005,0.13814 -0.554519,0.33234 -0.45745,0.52101 -1.425022,0.9076 -2.238474,0.89439 -0.210528,-0.003 -0.431023,-0.017 -0.489987,-0.0302 z"
         id="path298"
         inkscape:label="Nose"
         transform="translate(-27.748699,-44.661726)" /><text
         xml:space="preserve"
         style="font-size:44.7241px;fill:#ffcc00;stroke-width:0.095837"
         x="30.933989"
         y="144.85732"
         id="text415-4"
         inkscape:label="ama"><tspan
           sodipodi:role="line"
           id="tspan413-7"
           style="font-style:normal;font-variant:normal;font-weight:normal;font-stretch:normal;font-size:44.7241px;font-family:'Luckiest Guy';-inkscape-font-specification:'Luckiest Guy';fill:#ffcc00;stroke-width:0.095837"
           x="30.933989"
           y="144.85732">ama</tspan></text><text
         xml:space="preserve"
         style="font-size:246.662px;fill:#ffb380;stroke-width:0.369992"
         x="-289.96454"
         y="180.99037"
         id="text415"
         transform="scale(0.88823468,1.1258286)"
         inkscape:label="SQ"><tspan
           sodipodi:role="line"
           id="tspan413"
           style="font-style:normal;font-variant:normal;font-weight:normal;font-stretch:normal;font-size:246.662px;font-family:'Luckiest Guy';-inkscape-font-specification:'Luckiest Guy';fill:#ffb380;stroke-width:0.369992"
           x="-289.96454"
           y="180.99037">SQ</tspan></text></g></g></svg>
